<svg width="8" height="16" viewBox="0 0 8 16" fill="none" xmlns="http://www.w3.org/2000/svg">
<path d="M0.346263 1.26745C0.242359 1.3683 0.158506 1.48953 0.0994901 1.6242C0.0404746 1.75887 0.00745349 1.90435 0.00231228 2.05232C-0.00282893 2.2003 0.0200101 2.34788 0.0695258 2.48664C0.119042 2.62539 0.194264 2.7526 0.290897 2.861L5.37905 8.4742L0.306771 14.1053C0.210456 14.214 0.135604 14.3415 0.086487 14.4804C0.03737 14.6194 0.0149506 14.767 0.0205096 14.915C0.0260686 15.0629 0.0594965 15.2083 0.118885 15.3428C0.178273 15.4772 0.262459 15.5982 0.366636 15.6986C0.470812 15.7991 0.592939 15.8772 0.726044 15.9285C0.859148 15.9797 1.00062 16.0031 1.14239 15.9972C1.28416 15.9914 1.42345 15.9565 1.5523 15.8945C1.68115 15.8325 1.79704 15.7446 1.89335 15.6358L7.64585 9.23686C7.83082 9.02806 7.93338 8.75404 7.93297 8.4697C7.93257 8.18536 7.82924 7.9117 7.64369 7.70355L1.87315 1.32489C1.77654 1.21647 1.6604 1.12898 1.53137 1.06742C1.40235 1.00586 1.26296 0.971427 1.12117 0.966093C0.979386 0.960759 0.837974 0.984628 0.705014 1.03633C0.572054 1.08804 0.450149 1.16657 0.346263 1.26745Z" fill="white"/>
</svg>
