<svg width="243" height="222" viewBox="0 0 243 222" fill="none" xmlns="http://www.w3.org/2000/svg">
<path d="M4.4497 61.506L48.5609 61.506L48.5609 3.8147e-06L4.4497 3.8147e-06L4.4497 61.506Z" fill="#E6E6E6"/>
<path d="M2.56567 61.506L46.6768 61.506L46.6768 3.8147e-06L2.56567 3.8147e-06L2.56567 61.506Z" fill="#F5F5F5"/>
<path d="M43.2957 58.3066L43.2957 3.19951L5.94681 3.19951L5.94681 58.3066L43.2957 58.3066Z" fill="white"/>
<path d="M7.37128 58.3064L7.37128 3.19927L5.94711 3.19927L5.94711 58.3064H7.37128Z" fill="#E6E6E6"/>
<path d="M3.96423 43.4008L45.2783 43.4008V39.1059L3.96423 39.1059V43.4008Z" fill="#F5F5F5"/>
<path d="M68.1476 61.506L112.259 61.506L112.259 3.8147e-06L68.1476 3.8147e-06V61.506Z" fill="#E6E6E6"/>
<path d="M66.2636 61.506L110.375 61.506L110.375 3.8147e-06L66.2636 3.8147e-06V61.506Z" fill="#F5F5F5"/>
<path d="M106.994 58.3066L106.994 3.19951L69.6447 3.19951V58.3066L106.994 58.3066Z" fill="white"/>
<path d="M71.069 58.3064L71.069 3.19931L69.6449 3.19931L69.6449 58.3064H71.069Z" fill="#E6E6E6"/>
<path d="M67.6621 43.4008L108.976 43.4008V39.1059L67.6621 39.1059V43.4008Z" fill="#F5F5F5"/>
<path d="M131.845 61.506L175.956 61.506V3.8147e-06L131.845 3.8147e-06V61.506Z" fill="#E6E6E6"/>
<path d="M129.961 61.506L174.072 61.506V3.8147e-06L129.961 3.8147e-06V61.506Z" fill="#F5F5F5"/>
<path d="M170.691 58.3066V3.19951L133.342 3.19951V58.3066L170.691 58.3066Z" fill="white"/>
<path d="M134.767 58.3064V3.19931L133.343 3.19931V58.3064H134.767Z" fill="#E6E6E6"/>
<path d="M131.36 43.4008L172.674 43.4008V39.1059L131.36 39.1059V43.4008Z" fill="#F5F5F5"/>
<path d="M195.543 61.506L239.654 61.506V3.8147e-06L195.543 3.8147e-06V61.506Z" fill="#E6E6E6"/>
<path d="M193.659 61.506L237.77 61.506V3.8147e-06L193.659 3.8147e-06V61.506Z" fill="#F5F5F5"/>
<path d="M234.389 58.3067V3.19958L197.04 3.19958V58.3067L234.389 58.3067Z" fill="white"/>
<path d="M198.465 58.3065V3.19939L197.041 3.19939V58.3065H198.465Z" fill="#E6E6E6"/>
<path d="M195.058 43.4008L236.372 43.4008V39.1059L195.058 39.1059V43.4008Z" fill="#F5F5F5"/>
<path d="M200.992 127.326H171.842V193.083H200.992V127.326Z" fill="#E0E0E0"/>
<path d="M110.135 118.264L102.213 193.082H195.129L203.052 118.264H110.135Z" fill="#E6E6E6"/>
<path d="M108.648 118.264L100.725 193.082H193.641L201.564 118.264H108.648Z" fill="#F0F0F0"/>
<path d="M107.505 186.814H188.188L194.784 124.532H114.101L107.505 186.814Z" fill="white"/>
<path d="M129.765 156.099L139.71 167.531C144.714 173.282 153.846 173.282 160.067 167.531L172.433 156.099C172.687 155.865 172.728 155.483 172.523 155.248L162.578 143.816C157.574 138.065 148.442 138.065 142.221 143.816L129.855 155.248C129.601 155.482 129.561 155.863 129.765 156.099ZM171.232 155.673L159.326 166.679C153.612 171.961 145.225 171.961 140.63 166.679L131.055 155.673L142.962 144.667C148.675 139.385 157.062 139.385 161.657 144.667L171.232 155.673Z" fill="#F0F0F0"/>
<path d="M56.6571 193.082H72.0513L72.0513 107.666H56.6571L56.6571 193.082Z" fill="#E6E6E6"/>
<path d="M56.6576 107.666H7.01276V193.083H56.6576V107.666Z" fill="#F5F5F5"/>
<path d="M53.1621 193.082L53.1621 111.248L10.5076 111.248L10.5076 193.082H53.1621Z" fill="#E6E6E6"/>
<path d="M53.1622 193.082L53.1622 111.248H38.0778L38.0778 193.082H53.1622Z" fill="#E0E0E0"/>
<path d="M27.6889 143.079C30.3148 143.079 31.6697 139.829 29.827 137.911C28.4615 136.49 26.2709 135.332 22.7567 135.332C19.2425 135.332 17.0519 136.491 15.6865 137.911C13.8438 139.829 15.198 143.079 17.8246 143.079H27.6889Z" fill="#F5F5F5"/>
<path d="M36.7717 141.947C38.4582 141.947 39.3283 139.859 38.1446 138.628C37.2676 137.716 35.8609 136.972 33.6041 136.972C31.3473 136.972 29.9407 137.716 29.0637 138.628C27.88 139.859 28.7501 141.947 30.4366 141.947H36.7717Z" fill="#F5F5F5"/>
<path d="M46.1137 142.985C48.5042 142.985 49.7372 140.026 48.0601 138.281C46.8171 136.988 44.8232 135.933 41.6245 135.933C38.4257 135.933 36.4319 136.987 35.1889 138.281C33.5117 140.026 34.7441 142.985 37.1352 142.985H46.1137Z" fill="#F5F5F5"/>
<path d="M47.6185 140.465C49.27 140.465 50.2382 142.354 49.3143 143.757C47.4161 146.64 42.6895 150.375 30.9344 150.375C19.1794 150.375 14.4528 146.641 12.5545 143.757C11.6307 142.354 12.5989 140.465 14.2504 140.465H47.6185Z" fill="#F0F0F0"/>
<path d="M53.1625 153.956V150.374H8.61477V153.956H53.1625Z" fill="#F5F5F5"/>
<path d="M47.5816 107.666H58.7438L55.437 78.2439H47.5816V107.666Z" fill="#E6E6E6"/>
<path d="M28.7388 107.666H53.5668L56.1872 73.2301H31.3592L28.7388 107.666Z" fill="#E0E0E0"/>
<path d="M26.9536 107.666H52.7886L55.4089 73.2301H29.5734L26.9536 107.666Z" fill="#F5F5F5"/>
<path d="M50.3468 104.953L52.5543 75.9441H32.0157L29.8082 104.953H50.3468Z" fill="white"/>
<path d="M121.11 221.99C187.997 221.99 242.22 218.745 242.22 214.742C242.22 210.74 187.997 207.495 121.11 207.495C54.2228 207.495 0 210.74 0 214.742C0 218.745 54.2228 221.99 121.11 221.99Z" fill="#F5F5F5"/>
<path d="M60.752 89.3985L63.666 89.2628L62.3499 94.9307C62.3499 94.9307 60.7227 93.8279 59.5253 92.3774C59.0249 91.7713 59.0874 90.8675 59.6739 90.3497L60.752 89.3985Z" fill="#FFB573"/>
<path d="M67.0496 92.3237L65.741 96.9495L62.3499 94.9314L63.666 89.2628L67.0496 92.3237Z" fill="#FFB573"/>
<path d="M88.5196 56.6405C89.7046 59.3167 90.9407 62.0709 92.1881 64.7567C93.433 67.4534 94.7091 70.1308 96.0721 72.6969C96.405 73.3479 96.7586 73.9681 97.1065 74.5986L97.1721 74.717C97.1827 74.7368 97.1721 74.7215 97.1721 74.7273C97.1721 74.742 97.1465 74.7042 97.1184 74.6844C97.0397 74.614 96.9035 74.4552 96.48 74.2638C96.3632 74.2094 96.2514 74.1781 96.1171 74.1448C95.9765 74.1057 95.8322 74.0936 95.6867 74.0852C95.3881 74.0705 95.1033 74.1249 94.8934 74.1985C94.4699 74.3528 94.3212 74.5314 94.2738 74.5794C94.1863 74.701 94.335 74.5871 94.4562 74.4123C94.5886 74.2337 94.7379 73.9912 94.8834 73.7262C95.1757 73.193 95.4749 72.574 95.7492 71.9327C96.8498 69.3429 97.8336 66.4593 98.8205 63.6558L102.16 64.301C101.983 67.4681 101.608 70.529 100.812 73.714C100.602 74.5122 100.378 75.3212 100.048 76.1706C99.8811 76.5969 99.6937 77.0341 99.4426 77.5078C99.179 77.9827 98.8942 78.498 98.259 79.1348C97.9391 79.4408 97.4725 79.8351 96.6955 80.1059C96.3088 80.2371 95.8372 80.3164 95.3531 80.294C95.1152 80.2851 94.8803 80.2441 94.6479 80.1923C94.4231 80.1379 94.2269 80.0642 94.022 79.9797C93.2581 79.6328 92.8402 79.2123 92.5123 78.8622C92.3661 78.6951 92.2181 78.5146 92.1169 78.3687L91.9595 78.1434L91.8777 78.0192C91.4417 77.3561 90.9957 76.6923 90.5865 76.0234C88.9206 73.3479 87.4471 70.6205 86.0542 67.8592C84.6725 65.0825 83.3995 62.3129 82.2139 59.4037L88.5196 56.6405Z" fill="#FFB573"/>
<path d="M98.2852 62.6892L98.9692 60.4368L103.34 62.3378C103.34 62.3378 102.419 64.8034 100.846 65.8103C100.189 66.2308 99.3252 66.0381 98.9092 65.3686C98.4145 64.5724 98.1946 63.6289 98.2852 62.6892Z" fill="#FFB573"/>
<path d="M99.8649 56.9599L100.564 57.1647C102.285 57.6691 103.448 59.3103 103.382 61.1428L103.34 62.3378L98.9692 60.4368L99.8649 56.9599Z" fill="#FFB573"/>
<path d="M100.989 63.8312L97.1396 63.442C96.9129 63.4189 96.7561 63.2116 96.7904 62.9805L98.0559 54.486C98.0903 54.2549 98.3039 54.0847 98.53 54.1077L102.38 54.4969C102.606 54.5199 102.763 54.7273 102.729 54.9584L101.463 63.4529C101.429 63.6839 101.215 63.8542 100.989 63.8312Z" fill="#263238"/>
<path d="M100.793 63.8113L96.9434 63.4222C96.7167 63.3991 96.5599 63.1917 96.5943 62.9607L97.8604 54.4661C97.8948 54.2351 98.1084 54.0655 98.3345 54.0879L102.184 54.477C102.411 54.5001 102.568 54.7075 102.533 54.9385L101.267 63.433C101.233 63.6641 101.019 63.8337 100.793 63.8113Z" fill="#407BFF"/>
<path opacity="0.4" d="M101.348 62.8934L96.6743 62.4211L97.7449 55.2387L102.418 55.7111L101.348 62.8934Z" fill="white"/>
<path opacity="0.4" d="M97.5924 62.5138L97.0178 62.4556L99.6793 55.4345L100.255 55.4928L97.5924 62.5138Z" fill="white"/>
<path opacity="0.4" d="M98.8386 62.6399L97.9385 62.5484L100.6 55.5274L101.5 55.6189L98.8386 62.6399Z" fill="white"/>
<path opacity="0.4" d="M100.433 54.8751C100.411 55.0204 100.278 55.1267 100.135 55.1119C99.993 55.0972 99.8949 54.9679 99.9167 54.8226C99.9386 54.6773 100.072 54.5711 100.214 54.5858C100.356 54.5999 100.455 54.7298 100.433 54.8751Z" fill="#263238"/>
<path d="M102.064 61.0864L101.385 61.3226L100.774 60.7312C100.459 60.4252 100.103 60.166 99.7175 59.9605L99.3939 59.7884L99.214 60.0124C99.0123 60.2639 98.9979 60.6224 99.1784 60.8899L99.5451 61.434L100.801 64.3406L102.063 63.993L103.081 62.6393L102.064 61.0864Z" fill="#FFB573"/>
<path d="M63.4511 58.9147C62.7321 60.1667 61.9388 61.5595 61.2336 62.9139C60.5166 64.2811 59.8095 65.6535 59.1599 67.0393C58.5034 68.4225 57.8868 69.8191 57.3434 71.2132C56.7925 72.6099 56.319 74.0129 55.9655 75.3853L55.7412 76.2583C55.71 76.3915 55.6912 76.5726 55.6962 76.789C55.7031 77.2236 55.7962 77.7913 55.9786 78.3892C56.3471 79.5906 56.9611 80.9143 57.6895 82.197C58.4103 83.4945 59.2435 84.7791 60.1174 86.0522C60.9794 87.3253 61.937 88.6004 62.8533 89.8031L60.5234 92.3372C57.8706 90.2505 55.5082 87.9705 53.3713 85.2182C52.3276 83.826 51.32 82.3436 50.5455 80.5232C50.1613 79.6124 49.8209 78.6074 49.6604 77.431C49.5836 76.8434 49.5542 76.2103 49.611 75.5389L49.6704 75.0383L49.7272 74.7029L49.8422 74.0309C49.9808 73.1207 50.2057 72.2758 50.4062 71.4053C50.6479 70.5661 50.8759 69.7122 51.1558 68.9C51.6792 67.2473 52.3113 65.6656 52.976 64.1083C53.6412 62.5504 54.3683 61.0372 55.1466 59.5522C55.5351 58.8091 55.9367 58.0756 56.3484 57.344C56.7619 56.6002 57.1735 55.9127 57.6632 55.1395L63.4511 58.9147Z" fill="#FFB573"/>
<path d="M81.5387 38.9115C81.4188 39.2655 81.5025 39.6239 81.7249 39.7129C81.9472 39.8019 82.2246 39.5874 82.3439 39.2335C82.4632 38.8795 82.3801 38.5211 82.1577 38.4321C81.936 38.3431 81.6586 38.5576 81.5387 38.9115Z" fill="#263238"/>
<path d="M81.4712 39.6118C81.4712 39.6118 81.5543 41.9615 82.0727 43.2865C81.2738 43.6296 80.3412 42.9536 80.3412 42.9536L81.4712 39.6118Z" fill="#ED893E"/>
<path d="M82.7474 36.8261C82.7055 36.821 82.6649 36.8031 82.6318 36.7724C82.6068 36.75 82.0172 36.2251 81.1233 36.4741C81.0103 36.5061 80.8916 36.437 80.8604 36.3198C80.8291 36.2027 80.8966 36.0824 81.0109 36.0504C82.1371 35.7361 82.8873 36.4171 82.9185 36.4459C83.006 36.5272 83.0128 36.6648 82.9335 36.7551C82.8848 36.8108 82.8148 36.8345 82.7474 36.8261Z" fill="#263238"/>
<path d="M68.5506 39.976C68.6705 43.7915 70.0529 48.4052 67.8217 50.6692C67.8217 50.6692 68.8567 54.1109 75.0087 54.1109C81.7735 54.1109 78.1119 50.6698 78.1119 50.6698C74.386 49.766 74.3753 46.9593 74.9194 44.3234L68.5506 39.976Z" fill="#FFB573"/>
<path d="M66.2351 51.8507C65.7091 50.7613 65.1682 49.0875 66.2576 48.6971C67.4562 48.2676 73.5558 47.1801 78.1912 48.6881C77.3548 50.44 78.13 52.0786 78.13 52.0786L66.2351 51.8507Z" fill="#407BFF"/>
<path d="M61.501 210.244C61.0344 210.244 60.5509 210.171 60.3173 210.114C60.2767 210.104 60.2449 210.07 60.2368 210.028C60.2286 209.986 60.2455 209.942 60.2799 209.917C60.3311 209.88 61.5354 209.012 62.2037 209.158C62.3618 209.193 62.4817 209.279 62.5592 209.414C62.7053 209.668 62.6503 209.84 62.5791 209.939C62.4117 210.172 61.9645 210.244 61.501 210.244ZM60.6172 209.952C61.2955 210.07 62.2212 210.067 62.4074 209.809C62.4255 209.784 62.4798 209.708 62.3749 209.526C62.328 209.444 62.2581 209.394 62.1594 209.373C61.7615 209.286 61.0369 209.681 60.6172 209.952Z" fill="#407BFF"/>
<path d="M60.3423 210.117C60.3229 210.117 60.3029 210.112 60.2861 210.1C60.253 210.079 60.2336 210.042 60.2355 210.003C60.2374 209.946 60.2954 208.609 60.8045 208.166C60.9382 208.05 61.0912 208.002 61.2599 208.022C61.5222 208.055 61.5922 208.222 61.6103 208.319C61.709 208.839 60.8445 209.848 60.3948 210.104C60.3779 210.113 60.3604 210.117 60.3423 210.117ZM61.1849 208.237C61.0968 208.237 61.0169 208.269 60.9432 208.334C60.639 208.599 60.5078 209.344 60.4653 209.79C60.9101 209.433 61.4585 208.669 61.3998 208.361C61.3942 208.33 61.3804 208.258 61.2336 208.24C61.2168 208.238 61.2005 208.237 61.1849 208.237Z" fill="#407BFF"/>
<path d="M85.294 210.245C84.7525 210.245 84.1928 210.174 83.9023 210.115C83.8586 210.106 83.8249 210.07 83.8174 210.026C83.8099 209.981 83.8305 209.935 83.8686 209.912C84.096 209.775 86.1048 208.598 86.5895 209.413C86.7257 209.642 86.677 209.802 86.6126 209.897C86.4321 210.163 85.8737 210.245 85.294 210.245ZM84.2453 209.951C85.0954 210.072 86.2416 210.058 86.4377 209.771C86.4546 209.747 86.4989 209.682 86.4071 209.528C86.1323 209.065 84.9124 209.594 84.2453 209.951Z" fill="#407BFF"/>
<path d="M83.9236 210.117C83.9023 210.117 83.8811 210.111 83.863 210.098C83.8317 210.076 83.8143 210.04 83.8168 210.001C83.8199 209.949 83.8942 208.701 84.4514 208.214C84.6232 208.064 84.8224 207.998 85.0435 208.022C85.3446 208.054 85.4321 208.211 85.4521 208.338C85.5389 208.875 84.5101 209.854 83.9679 210.108C83.9542 210.114 83.9386 210.117 83.9236 210.117ZM84.9573 208.237C84.8212 208.237 84.7006 208.285 84.5907 208.381C84.2247 208.701 84.0935 209.453 84.0504 209.814C84.5951 209.474 85.2934 208.698 85.2409 208.374C85.2366 208.346 85.2228 208.262 85.0223 208.24C84.9998 208.238 84.978 208.237 84.9573 208.237Z" fill="#407BFF"/>
<path d="M78.9471 210.007H83.4726L83.5188 199.267H78.9933L78.9471 210.007Z" fill="#FFB573"/>
<path d="M55.1572 210.007H59.6826L61.5528 199.267H57.0273L55.1572 210.007Z" fill="#FFB573"/>
<path d="M59.9844 209.47H54.8999C54.715 209.47 54.5595 209.602 54.5264 209.787L53.7874 213.909C53.7106 214.337 54.0541 214.741 54.4814 214.734C56.2554 214.703 57.1136 214.596 59.3498 214.596C60.7253 214.596 63.5648 214.742 65.4644 214.742C67.322 214.742 67.5394 212.818 66.7555 212.643C63.2388 211.861 61.8846 210.783 60.7296 209.755C60.5216 209.57 60.2549 209.47 59.9844 209.47Z" fill="#263238"/>
<path d="M83.4226 209.47H78.4804C78.2956 209.47 78.14 209.602 78.1069 209.787L77.368 213.909C77.2911 214.337 77.6234 214.741 78.0501 214.734C79.8315 214.703 82.4038 214.596 84.645 214.596C87.2653 214.596 89.5334 214.742 92.606 214.742C94.4636 214.742 94.9071 212.818 94.1226 212.643C90.5522 211.849 87.6582 211.764 84.5257 209.831C84.1859 209.621 83.8136 209.47 83.4226 209.47Z" fill="#263238"/>
<path d="M59.1861 51.7176C54.9816 52.7142 50.5636 64.5647 50.5636 64.5647L59.3085 70.5482C59.3085 70.5482 62.3617 65.9216 64.5661 60.7453C66.876 55.3213 63.4848 50.6986 59.1861 51.7176Z" fill="#407BFF"/>
<path opacity="0.3" d="M59.1861 51.7176C54.9816 52.7142 50.5636 64.5647 50.5636 64.5647L59.3085 70.5482C59.3085 70.5482 62.3617 65.9216 64.5661 60.7453C66.876 55.3213 63.4848 50.6986 59.1861 51.7176Z" fill="black"/>
<path opacity="0.2" d="M62.5104 59.2744L58.8956 70.2646L59.3066 70.5488C59.3066 70.5488 60.9557 68.0429 62.7134 64.6588L62.5104 59.2744Z" fill="black"/>
<path d="M87.4203 72.4338C87.3872 77.6101 87.0817 84.0494 86.3296 92.0414H62.1188C61.809 88.2349 63.4436 69.6565 59.1886 51.715C59.1886 51.715 63.3025 50.8631 67.2502 50.6672C70.3371 50.5155 74.812 50.4144 77.5385 50.6672C81.1364 51.002 84.5482 51.9551 84.5482 51.9551C84.5482 51.9551 86.6189 54.253 87.2466 65.0287C87.369 67.1563 87.4371 69.6059 87.4203 72.4338Z" fill="#407BFF"/>
<path opacity="0.3" d="M87.4203 72.4338C87.3872 77.6101 87.0817 84.0494 86.3296 92.0414H62.1188C61.809 88.2349 63.4436 69.6565 59.1886 51.715C59.1886 51.715 63.3025 50.8631 67.2502 50.6672C70.3371 50.5155 74.812 50.4144 77.5385 50.6672C81.1364 51.002 84.5482 51.9551 84.5482 51.9551C84.5482 51.9551 86.6189 54.253 87.2466 65.0287C87.369 67.1563 87.4371 69.6059 87.4203 72.4338Z" fill="black"/>
<path opacity="0.2" d="M87.4202 72.4338C83.7674 74.6428 80.944 67.0764 82.8985 61.6613L87.246 65.0294C87.369 67.1564 87.4371 69.606 87.4202 72.4338Z" fill="black"/>
<path d="M79.8622 55.3872C78.7404 59.6508 86.5639 71.8795 86.5639 71.8795L95.3906 66.8325C95.3906 66.8325 93.1876 60.6237 89.8364 55.8903C86.0936 50.6039 81.1258 50.5847 79.8622 55.3872Z" fill="#407BFF"/>
<path opacity="0.3" d="M79.8622 55.3872C78.7404 59.6508 86.5639 71.8795 86.5639 71.8795L95.3906 66.8325C95.3906 66.8325 93.1876 60.6237 89.8364 55.8903C86.0936 50.6039 81.1258 50.5847 79.8622 55.3872Z" fill="black"/>
<path opacity="0.2" d="M83.5181 199.27L83.495 204.806H78.9677L78.9902 199.27H83.5181Z" fill="black"/>
<path opacity="0.2" d="M57.0261 199.27H61.5535L60.5872 204.806H56.0598L57.0261 199.27Z" fill="black"/>
<path d="M70.4508 33.6245C69.2384 38.0711 68.312 40.602 69.6669 43.6757C71.705 48.299 77.5329 48.3713 79.9958 44.4341C82.2127 40.89 83.823 34.214 80.32 30.8497C76.8683 27.5354 71.6632 29.1785 70.4508 33.6245Z" fill="#FFB573"/>
<path d="M69.69 28.4212C67.5743 27.8663 65.663 29.2821 65.8335 34.6518C66.004 40.0208 67.4875 41.7112 68.2127 43.1124C68.9379 44.5135 69.0116 43.2769 71.8762 44.2146C73.8457 44.8591 75.8764 38.3201 78.463 38.2798C81.3326 38.235 78.8803 33.2967 78.8803 33.2967C79.5068 34.3529 85.6844 35.0653 82.0734 30.3204C78.8709 26.1131 67.5206 25.3354 69.69 28.4212Z" fill="#263238"/>
<path d="M65.5161 34.4469C65.5161 34.4469 79.7391 32.9511 82.7617 31.0046C82.6274 27.079 80.6011 24.7497 79.8578 24.1999C79.1151 23.6501 72.7438 23.4299 71.2603 23.8555C69.7768 24.2805 65.696 26.4914 65.2257 27.399C64.7566 28.3066 65.5161 34.4469 65.5161 34.4469Z" fill="#407BFF"/>
<path d="M79.7278 32.1311C78.1712 33.3179 71.8593 38.5166 63.7153 37.4413C55.5713 36.3653 65.8228 34.1032 65.8228 34.1032L79.7278 32.1311Z" fill="#407BFF"/>
<path opacity="0.4" d="M79.7278 32.1311C78.1712 33.3179 71.8593 38.5166 63.7153 37.4413C55.5713 36.3653 65.8228 34.1032 65.8228 34.1032L79.7278 32.1311Z" fill="white"/>
<path d="M75.659 37.1423C75.5135 38.3489 75.842 39.59 76.3474 40.4682C77.1075 41.7881 78.23 41.3285 78.6398 40.0246C79.0089 38.8501 79.0589 36.7487 77.9964 35.8744C76.9514 35.0128 75.8258 35.7623 75.659 37.1423Z" fill="#FFB573"/>
<path d="M77.7409 92.0414C77.7409 92.0414 73.94 127.483 71.6207 140.761C69.0809 155.301 62.6559 203.734 62.6559 203.734H54.367C54.367 203.734 56.8737 156.475 58.0936 142.078C59.4172 126.454 62.1212 92.0414 62.1212 92.0414H77.7409Z" fill="#407BFF"/>
<path d="M63.8621 200.605C63.8977 200.605 63.1288 203.867 63.1288 203.867H53.803L53.8642 200.956L63.8621 200.605Z" fill="#263238"/>
<path opacity="0.2" d="M74.9707 104.669C69.0766 105.862 70.5601 128.557 71.7151 140.229C73.1167 131.979 75.0256 116.102 76.3136 104.833C75.912 104.631 75.466 104.568 74.9707 104.669Z" fill="black"/>
<path d="M86.3277 92.0415C86.3277 92.0415 88.2572 126.716 88.2978 140.858C88.3403 155.568 85.1409 203.734 85.1409 203.734H77.4742C77.4742 203.734 75.4104 156.427 74.5253 141.981C73.5602 126.231 70.4158 92.0408 70.4158 92.0408H86.3277V92.0415Z" fill="#407BFF"/>
<path d="M86.4983 200.605C86.5339 200.605 86.1885 203.867 86.1885 203.867H76.8626L76.501 200.956L86.4983 200.605Z" fill="#263238"/>
<path d="M108.221 54.6755L124.334 61.6613V54.6755H108.221Z" fill="#FC814A"/>
<path d="M204.667 150.121H135.014C130.361 150.121 126.554 146.22 126.554 141.452V33.5547C126.554 28.7867 130.361 24.8861 135.014 24.8861H204.667C209.32 24.8861 213.127 28.7867 213.127 33.5547V141.452C213.127 146.22 209.32 150.121 204.667 150.121Z" fill="#263238"/>
<path d="M202.447 150.121H132.793C128.14 150.121 124.334 146.22 124.334 141.452V33.5547C124.334 28.7867 128.14 24.8861 132.793 24.8861H202.447C207.1 24.8861 210.906 28.7867 210.906 33.5547V141.452C210.906 146.22 207.1 150.121 202.447 150.121Z" fill="#FC814A"/>
<path opacity="0.8" d="M210.906 61.6613H124.334V135.582H210.906V61.6613Z" fill="#FAFAFA"/>
<path d="M136.925 40.3095C134.894 40.3095 133.242 38.6165 133.242 36.5356C133.242 34.454 134.894 32.7617 136.925 32.7617C138.956 32.7617 140.608 34.4547 140.608 36.5356C140.609 38.6165 138.956 40.3095 136.925 40.3095ZM136.925 33.4286C135.254 33.4286 133.893 34.8221 133.893 36.5356C133.893 38.2491 135.253 39.6425 136.925 39.6425C138.597 39.6425 139.956 38.2491 139.956 36.5356C139.956 34.8221 138.597 33.4286 136.925 33.4286Z" fill="#FAFAFA"/>
<path d="M147.679 40.3095C145.649 40.3095 143.997 38.6165 143.997 36.5356C143.997 34.454 145.649 32.7617 147.679 32.7617C149.71 32.7617 151.362 34.4547 151.362 36.5356C151.363 38.6165 149.711 40.3095 147.679 40.3095ZM147.679 33.4286C146.008 33.4286 144.648 34.8221 144.648 36.5356C144.648 38.2491 146.007 39.6425 147.679 39.6425C149.351 39.6425 150.711 38.2491 150.711 36.5356C150.711 34.8221 149.351 33.4286 147.679 33.4286Z" fill="#FAFAFA"/>
<path d="M158.434 40.3095C156.403 40.3095 154.751 38.6165 154.751 36.5356C154.751 34.454 156.403 32.7617 158.434 32.7617C160.464 32.7617 162.117 34.4547 162.117 36.5356C162.117 38.6165 160.465 40.3095 158.434 40.3095ZM158.434 33.4286C156.762 33.4286 155.402 34.8221 155.402 36.5356C155.402 38.2491 156.762 39.6425 158.434 39.6425C160.105 39.6425 161.466 38.2491 161.466 36.5356C161.466 34.8221 160.106 33.4286 158.434 33.4286Z" fill="#FAFAFA"/>
<path d="M163.693 142.69C163.693 143.699 162.896 144.516 161.911 144.516C160.927 144.516 160.129 143.699 160.129 142.69C160.129 141.681 160.927 140.864 161.911 140.864C162.896 140.864 163.693 141.681 163.693 142.69Z" fill="#FAFAFA"/>
<path d="M169.402 142.69C169.402 143.699 168.605 144.516 167.62 144.516C166.636 144.516 165.838 143.699 165.838 142.69C165.838 141.681 166.636 140.864 167.62 140.864C168.604 140.864 169.402 141.681 169.402 142.69Z" fill="#FAFAFA"/>
<path d="M175.111 142.69C175.111 143.699 174.313 144.516 173.329 144.516C172.344 144.516 171.547 143.699 171.547 142.69C171.547 141.681 172.344 140.864 173.329 140.864C174.313 140.864 175.111 141.681 175.111 142.69Z" fill="#FAFAFA"/>
<path d="M151.26 91.9179H132.281C130.846 91.9179 129.681 90.7254 129.681 89.2539V69.8057C129.681 68.3348 130.845 67.1417 132.281 67.1417H151.26C152.695 67.1417 153.86 68.3341 153.86 69.8057V89.2539C153.86 90.7248 152.696 91.9179 151.26 91.9179Z" fill="#FC814A"/>
<path opacity="0.3" d="M141.77 80.8458C144.405 80.8458 146.54 78.6575 146.54 75.9582C146.54 73.2588 144.405 71.0705 141.77 71.0705C139.136 71.0705 137.001 73.2588 137.001 75.9582C137.001 78.6575 139.136 80.8458 141.77 80.8458Z" fill="white"/>
<path opacity="0.3" d="M141.77 82.9088C138.026 82.9088 134.857 84.6671 133.796 87.0905C133.43 87.9258 134.032 88.8712 134.926 88.8712H148.614C149.507 88.8712 150.11 87.9258 149.744 87.0905C148.684 84.6671 145.515 82.9088 141.77 82.9088Z" fill="white"/>
<path opacity="0.7" d="M200.287 127.173H134.953C132.042 127.173 129.681 124.754 129.681 121.771C129.681 118.787 132.042 116.368 134.953 116.368H200.288C203.199 116.368 205.559 118.787 205.559 121.771C205.559 124.755 203.198 127.173 200.287 127.173Z" fill="white"/>
<path opacity="0.2" d="M200.287 111.312H134.953C132.042 111.312 129.681 108.893 129.681 105.91C129.681 102.927 132.042 100.508 134.953 100.508H200.288C203.199 100.508 205.559 102.926 205.559 105.91C205.559 108.893 203.198 111.312 200.287 111.312Z" fill="#FC814A"/>
<path d="M159.854 75.0202H205.405V71.7379H159.854V75.0202Z" fill="white"/>
<path d="M159.854 81.1706H205.405V77.8883H159.854V81.1706Z" fill="white"/>
<path d="M159.853 87.3212H196.267V84.0389H159.853V87.3212Z" fill="white"/>
</svg>
