<svg width="30" height="30" viewBox="0 0 30 30" fill="none" xmlns="http://www.w3.org/2000/svg">
<path fill-rule="evenodd" clip-rule="evenodd" d="M10.7121 8.64981e-05C9.69643 8.64981e-05 8.655 0.328647 7.83429 1.00724C7.00071 1.69443 6.42429 2.7252 6.42429 3.91489V7.22841H3.21429C1.47857 7.22841 0 8.5899 0 10.3637V26.8647C0 28.6364 1.47857 30 3.21429 30H26.7857C28.5214 30 30 28.6364 30 26.8647V10.3637C30 8.59204 28.5214 7.22841 26.7857 7.22841H23.5757V3.91489C23.5757 2.72735 22.9993 1.69443 22.1657 1.00724C21.3508 0.349383 20.3343 -0.00637527 19.2879 8.64981e-05H10.7121ZM19.29 7.22841V4.29499H10.71V7.22841H19.29ZM9.375 18.6142C9.375 17.8733 9.975 17.272 10.7143 17.272H13.6607V14.3193C13.6607 13.9633 13.8018 13.622 14.053 13.3703C14.3041 13.1185 14.6448 12.9771 15 12.9771C15.3552 12.9771 15.6959 13.1185 15.947 13.3703C16.1982 13.622 16.3393 13.9633 16.3393 14.3193V17.272H19.2857C19.6409 17.272 19.9816 17.4135 20.2327 17.6652C20.4839 17.9169 20.625 18.2582 20.625 18.6142C20.625 18.9702 20.4839 19.3116 20.2327 19.5633C19.9816 19.815 19.6409 19.9564 19.2857 19.9564H16.3393V22.9091C16.3393 23.2651 16.1982 23.6065 15.947 23.8582C15.6959 24.1099 15.3552 24.2513 15 24.2513C14.6448 24.2513 14.3041 24.1099 14.053 23.8582C13.8018 23.6065 13.6607 23.2651 13.6607 22.9091V19.9564H10.7143C10.3591 19.9564 10.0184 19.815 9.76727 19.5633C9.5161 19.3116 9.375 18.9702 9.375 18.6142Z" fill="white"/>
</svg>
