<svg width="32" height="32" viewBox="0 0 32 32" fill="none" xmlns="http://www.w3.org/2000/svg">
<mask id="mask0_63_70" style="mask-type:luminance" maskUnits="userSpaceOnUse" x="0" y="0" width="32" height="33">
<path d="M8.50004 17.579C7.72004 16.1635 6.88754 13.1966 10.006 9.4916C10.9158 8.59081 12.1105 7.40739 14.293 6.78923C16.6316 5.63186 17.8008 3.77896 16.2423 1C17.4116 1.77211 19.7501 4.70501 19.7501 10.2629" stroke="white" stroke-width="2" stroke-linecap="round" stroke-linejoin="round"/>
<path d="M10.1898 19.1027C4 15.6606 1.3825 20.8908 1 23.7014C4 23.7014 7.50926 25.9995 9.04076 28.2985C11.7978 31.9774 16.0608 31.109 17.8473 30.2145C23.3613 27.149 25.2498 27.404 25.5048 27.9156C25.8123 30.3677 26.6538 30.9811 27.037 30.9811C29.794 31.2874 30.7383 27.7877 30.8658 25.9995C31.4785 18.6424 29.845 18.3361 28.9518 19.1027C25.2753 23.7006 23.08 24.5951 22.4418 24.4672C19.6855 23.8537 20.017 22.679 20.5278 22.1674C25.429 17.8766 25.378 8.3737 24.7398 4.1579C22.9023 8.75659 19.8895 10.6719 18.613 11.0555C10.9555 13.2013 9.80651 17.3145 10.1898 19.1027Z" fill="white" stroke="white" stroke-width="2" stroke-linecap="round" stroke-linejoin="round"/>
<path d="M7 23.4306C7.82843 23.4306 8.5 22.7237 8.5 21.8517C8.5 20.9796 7.82843 20.2727 7 20.2727C6.17157 20.2727 5.5 20.9796 5.5 21.8517C5.5 22.7237 6.17157 23.4306 7 23.4306Z" fill="black"/>
</mask>
<g mask="url(#mask0_63_70)">
<path d="M-2 -2.94739H34V34.9475H-2V-2.94739Z" fill="white"/>
</g>
</svg>
