<svg width="39" height="38" viewBox="0 0 39 38" fill="none" xmlns="http://www.w3.org/2000/svg">
<path fill-rule="evenodd" clip-rule="evenodd" d="M19.5 2.08759e-10C22.0607 -1.16957e-05 24.5964 0.491428 26.9623 1.44626C29.3281 2.40109 31.4778 3.80062 33.2886 5.56493C35.0993 7.32924 36.5357 9.42378 37.5156 11.729C38.4956 14.0342 39 16.5048 39 19C39 29.4934 30.2695 38 19.5 38C8.73048 38 0 29.4934 0 19C0 8.50662 8.73048 2.08759e-10 19.5 2.08759e-10ZM21.45 20.9H17.55C12.7224 20.9 8.57774 23.7489 6.79011 27.8155C9.61858 31.68 14.2573 34.2 19.5 34.2C24.7426 34.2 29.3813 31.68 32.2099 27.8153C30.4223 23.7489 26.2776 20.9 21.45 20.9ZM19.5 5.7C16.2691 5.7 13.65 8.25199 13.65 11.4C13.65 14.548 16.2691 17.1 19.5 17.1C22.7308 17.1 25.3499 14.548 25.3499 11.4C25.3499 8.25199 22.7309 5.7 19.5 5.7Z" fill="white"/>
</svg>
