<svg width="30" height="30" viewBox="0 0 30 30" fill="none" xmlns="http://www.w3.org/2000/svg">
<path d="M28.6779 2.42999C28.2862 2.29014 27.8552 2.25358 27.4395 2.32494C27.0237 2.39629 26.6418 2.57236 26.3421 2.83087C25.037 3.95107 23.2703 4.57998 21.4286 4.57998C19.5869 4.57998 17.8202 3.95107 16.515 2.83087C14.4061 1.01802 11.5495 0 8.57143 0C5.59332 0 2.73671 1.01802 0.627858 2.83087C0.225966 3.17724 0.000121366 3.64704 0 4.13695V28.1526C0 28.6426 0.225765 29.1125 0.627629 29.4589C1.02949 29.8054 1.57454 30 2.14286 30C2.71118 30 3.25622 29.8054 3.65809 29.4589C4.05995 29.1125 4.28571 28.6426 4.28571 28.1526V19.7416C5.62369 18.8417 7.29678 18.3938 8.9907 18.4823C10.6846 18.5707 12.2828 19.1893 13.485 20.2219C15.5939 22.0348 18.4505 23.0528 21.4286 23.0528C24.4067 23.0528 27.2633 22.0348 29.3721 20.2219C29.774 19.8756 29.9999 19.4057 30 18.9158V4.13695C30.0001 3.77161 29.8746 3.41444 29.6392 3.11061C29.4039 2.80677 29.0693 2.56992 28.6779 2.42999Z" fill="white"/>
</svg>
