<svg width="243" height="222" viewBox="0 0 243 222" fill="none" xmlns="http://www.w3.org/2000/svg">
<path d="M37.5488 63.9969C44.7627 63.9969 50.6106 58.149 50.6106 50.9351C50.6106 43.7211 44.7627 37.8732 37.5488 37.8732H35.9466V63.9963L37.5488 63.9969Z" fill="#E0E0E0"/>
<path d="M35.9466 63.9969C43.1604 63.9969 49.0084 58.1489 49.0084 50.9351C49.0084 43.7212 43.1604 37.8732 35.9466 37.8732C28.7327 37.8732 22.8847 43.7212 22.8847 50.9351C22.8847 58.1489 28.7327 63.9969 35.9466 63.9969Z" fill="#F5F5F5"/>
<path d="M35.3482 52.5766C25.7075 52.5766 17.8638 44.733 17.8638 35.0923V24.6458C17.8638 23.7388 18.599 23.0043 19.5054 23.0043C20.4118 23.0043 21.147 23.7395 21.147 24.6458V35.0923C21.147 42.9228 27.5177 49.2929 35.3475 49.2929C36.2539 49.2929 36.9891 50.0281 36.9891 50.9344C36.9891 51.8408 36.2545 52.5766 35.3482 52.5766Z" fill="#E0E0E0"/>
<path d="M4.97626 33.843H34.0352C36.0265 33.843 37.4782 31.9572 36.9685 30.0321L34.4481 20.5157C34.0958 19.1852 32.8915 18.2582 31.5154 18.2582H7.4973C6.1206 18.2582 4.91692 19.1846 4.56462 20.5157L2.04419 30.0321C1.53324 31.9566 2.9849 33.843 4.97626 33.843Z" fill="#F5F5F5"/>
<path d="M222.005 63.9969C229.219 63.9969 235.066 58.149 235.066 50.9351C235.066 43.7211 229.219 37.8732 222.005 37.8732H220.402V63.9963L222.005 63.9969Z" fill="#E0E0E0"/>
<path d="M220.402 63.9969C227.616 63.9969 233.464 58.1489 233.464 50.9351C233.464 43.7212 227.616 37.8732 220.402 37.8732C213.188 37.8732 207.34 43.7212 207.34 50.9351C207.34 58.1489 213.188 63.9969 220.402 63.9969Z" fill="#F5F5F5"/>
<path d="M219.804 52.5766C210.163 52.5766 202.32 44.733 202.32 35.0923V24.6458C202.32 23.7388 203.055 23.0043 203.961 23.0043C204.868 23.0043 205.603 23.7395 205.603 24.6458V35.0923C205.603 42.9228 211.973 49.2929 219.803 49.2929C220.71 49.2929 221.445 50.0281 221.445 50.9344C221.445 51.8408 220.71 52.5766 219.804 52.5766Z" fill="#E0E0E0"/>
<path d="M189.432 33.843H218.491C220.482 33.843 221.934 31.9572 221.424 30.0321L218.903 20.5157C218.551 19.1852 217.347 18.2582 215.971 18.2582H191.952C190.576 18.2582 189.372 19.1846 189.02 20.5157L186.499 30.0321C185.989 31.9566 187.441 33.843 189.432 33.843Z" fill="#F5F5F5"/>
<path d="M49.4188 152.213H58.9177L58.9177 115.403H49.4188L49.4188 152.213Z" fill="#E6E6E6"/>
<path d="M23.6649 152.212H55.1905L59.9515 109.129H28.4259L23.6649 152.212Z" fill="#F0F0F0"/>
<path d="M20.2506 152.212H52.8137L57.5747 109.129H25.0116L20.2506 152.212Z" fill="#F5F5F5"/>
<path d="M50.4613 148.818L54.4715 112.525H27.364L23.3538 148.818H50.4613Z" fill="white"/>
<path d="M44.8627 140.021L45.0263 138.542C46.0326 129.436 40.3478 121.321 32.9627 121.321L32.799 122.801C31.7927 131.905 37.4782 140.021 44.8627 140.021Z" fill="#F5F5F5"/>
<path d="M2.63492 193.78H30.6432L30.6432 152.213H2.63492L2.63492 193.78Z" fill="#E6E6E6"/>
<path d="M5.45224 193.779H2.63511V185.766H8.40616L5.45224 193.779Z" fill="#F0F0F0"/>
<path d="M81.1331 193.78H109.141V152.213H81.1331V193.78Z" fill="#E6E6E6"/>
<path d="M2.63498 188.862H83.5922V152.213H2.63498V188.862Z" fill="#F0F0F0"/>
<path d="M80.7752 193.779H83.5923V185.766H77.8212L80.7752 193.779Z" fill="#F0F0F0"/>
<path d="M4.82059 169.294H81.4065V154.505H4.82059V169.294Z" fill="#E6E6E6"/>
<path d="M38.006 164.146H48.2208C52.6576 164.146 56.8995 162.322 59.9509 159.101H26.2753C29.3273 162.322 33.5692 164.146 38.006 164.146Z" fill="#F0F0F0"/>
<path d="M4.82059 186.472H81.4065V171.683H4.82059V186.472Z" fill="#E6E6E6"/>
<path d="M38.006 181.324H48.2208C52.6576 181.324 56.8995 179.5 59.9509 176.279H26.2753C29.3273 179.5 33.5692 181.324 38.006 181.324Z" fill="#F0F0F0"/>
<path d="M78.464 150.517H79.1873C79.1798 149.027 79.1911 145.246 79.2635 136.58C79.3935 120.874 79.6433 119.917 79.6433 119.917L77.9206 127.167C76.8281 135.197 78.236 143.264 78.464 150.517Z" fill="#E6E6E6"/>
<path d="M77.0336 126.087C74.5537 123.132 69.2562 122.272 63.8318 121.536C61.7024 121.248 69.4279 126.114 73.2039 129.571C76.1372 132.255 78.013 132.997 78.8182 135.673C79.2379 132.336 79.1698 128.634 77.0336 126.087Z" fill="#E6E6E6"/>
<path d="M80.3229 131.369C82.8021 128.414 88.1003 127.554 93.5247 126.818C95.6541 126.53 87.9286 131.396 84.1526 134.852C81.2193 137.537 79.3435 138.279 78.5383 140.955C78.1179 137.618 78.186 133.916 80.3229 131.369Z" fill="#E6E6E6"/>
<path d="M79.261 119.222C81.12 115.69 85.7985 112.364 91.048 111.102C93.1087 110.607 86.2739 117.625 83.676 122.15C81.6578 125.666 78.9812 129.795 78.5652 132.762C77.9374 126.885 77.4021 122.754 79.261 119.222Z" fill="#E6E6E6"/>
<path d="M79.0418 152.212C76.8268 152.212 74.9966 151.103 74.8692 149.682L74.5 147.255H83.5829L83.2138 149.682C83.087 151.103 81.2568 152.212 79.0418 152.212Z" fill="#F0F0F0"/>
<path d="M84.1713 148.189H73.9122L73.618 145.485H84.4649L84.1713 148.189Z" fill="#F0F0F0"/>
<path d="M71.6305 96.5386L171.702 96.5386V5.25861L71.6305 5.25861L71.6305 96.5386Z" fill="#E6E6E6"/>
<path d="M69.3785 96.5386L170.723 96.5386V5.25861L69.3785 5.25861L69.3785 96.5386Z" fill="#F5F5F5"/>
<path d="M166.68 92.4489L166.68 9.34732L73.4208 9.34732L73.4208 92.4489L166.68 92.4489Z" fill="#FAFAFA"/>
<path d="M155.237 92.4493L118.532 9.34776H106.065L142.77 92.4493H155.237Z" fill="white"/>
<path d="M139.236 92.4493L102.531 9.34776H93.9463L130.651 92.4493H139.236Z" fill="white"/>
<path d="M108.049 92.45L108.049 9.34776H103.226L103.226 92.45H108.049Z" fill="#E6E6E6"/>
<path d="M140.105 92.4497L140.105 9.34752H135.283L135.283 92.4497H140.105Z" fill="#E6E6E6"/>
<path d="M107.179 95.0439L107.179 6.30745L101.084 6.30745L101.084 95.0439H107.179Z" fill="#F5F5F5"/>
<path d="M139.236 95.0436L139.236 6.30713L133.14 6.30713L133.14 95.0436H139.236Z" fill="#F5F5F5"/>
<path d="M73.8498 92.449L73.8498 9.34738H73.4207L73.4207 92.449H73.8498Z" fill="#E6E6E6"/>
<path d="M67.6808 0H176.097C176.383 0 176.618 0.234869 176.618 0.521579C176.618 0.808289 176.383 1.04315 176.097 1.04315H67.6808C67.3941 1.04315 67.1592 0.808289 67.1592 0.521579C67.1599 0.234244 67.3941 0 67.6808 0Z" fill="#E6E6E6"/>
<path d="M171.702 3.44052C172.089 3.44052 172.406 3.12383 172.406 2.73655V1.22492C172.406 0.837642 172.089 0.52095 171.702 0.52095C171.314 0.52095 170.998 0.837642 170.998 1.22492V2.73655C170.998 3.12383 171.314 3.44052 171.702 3.44052Z" fill="#E6E6E6"/>
<path d="M75.5432 3.44052C75.9305 3.44052 76.2471 3.12383 76.2471 2.73655V1.22492C76.2471 0.837642 75.9305 0.52095 75.5432 0.52095C75.1559 0.52095 74.8392 0.837642 74.8392 1.22492V2.73655C74.8398 3.12383 75.1565 3.44052 75.5432 3.44052Z" fill="#E6E6E6"/>
<path opacity="0.6" d="M67.8478 72.0034L169.118 72.0034V0.521385L67.8478 0.521385L67.8478 72.0034Z" fill="#E0E0E0"/>
<path d="M178.285 132.111H160.826C158.969 132.111 157.464 130.606 157.464 128.749V120.668C157.464 118.811 158.97 117.306 160.826 117.306H178.285C180.142 117.306 181.647 118.812 181.647 120.668V128.749C181.647 130.606 180.142 132.111 178.285 132.111Z" fill="#FAFAFA"/>
<path d="M180.518 117.742H158.593C157.97 117.742 157.464 117.236 157.464 116.613V115.7C157.464 115.076 157.97 114.571 158.593 114.571H180.518C181.142 114.571 181.647 115.076 181.647 115.7V116.613C181.647 117.236 181.142 117.742 180.518 117.742Z" fill="#E6E6E6"/>
<path d="M157.82 148.528C157.82 148.528 158.137 158.937 170.267 158.937C182.398 158.937 182.715 148.528 182.715 148.528H157.82Z" fill="#F0F0F0"/>
<path d="M185.48 148.528C185.48 148.528 185.797 158.937 197.927 158.937C210.058 158.937 210.374 148.528 210.374 148.528H185.48Z" fill="#F0F0F0"/>
<path d="M204.372 132.111H180.378C177.827 132.111 175.759 130.043 175.759 127.49V115.221C175.759 112.669 177.827 110.601 180.378 110.601H204.372C206.923 110.601 208.991 112.67 208.991 115.221V127.49C208.991 130.042 206.923 132.111 204.372 132.111Z" fill="#F0F0F0"/>
<path d="M207.44 111.199H177.31C176.453 111.199 175.759 110.505 175.759 109.648V108.393C175.759 107.537 176.453 106.842 177.31 106.842H207.44C208.297 106.842 208.991 107.537 208.991 108.393V109.648C208.991 110.505 208.297 111.199 207.44 111.199Z" fill="#F5F5F5"/>
<path d="M148.684 193.779H151.831V142.157H148.684V193.779Z" fill="#E6E6E6"/>
<path d="M239.583 132.111H222.536V142.157H239.583V132.111Z" fill="#E6E6E6"/>
<path d="M137.784 142.157H222.536V132.111H137.784V142.157Z" fill="#F5F5F5"/>
<path d="M239.583 158.937H222.536V168.983H239.583V158.937Z" fill="#E6E6E6"/>
<path d="M137.784 168.983H222.536V158.937H137.784V168.983Z" fill="#F5F5F5"/>
<path d="M233.436 193.779H236.583V142.157H233.436V193.779Z" fill="#E6E6E6"/>
<path d="M219.389 193.779H222.536V142.157H219.389V193.779Z" fill="#F5F5F5"/>
<path d="M137.784 193.779H140.931V142.157H137.784V193.779Z" fill="#F5F5F5"/>
<path d="M121.889 221.99C188.777 221.99 243 218.823 243 214.917C243 211.011 188.777 207.844 121.889 207.844C55.0013 207.844 0.77803 211.011 0.77803 214.917C0.77803 218.823 55.0013 221.99 121.889 221.99Z" fill="#F5F5F5"/>
<path d="M128.394 183.222H48.7061C46.0733 183.222 43.8289 181.087 43.6934 178.454L36.5612 40.0645C36.4257 37.4316 38.4501 35.2972 41.083 35.2972H120.771C123.404 35.2972 125.648 37.4316 125.784 40.0645L132.916 178.454C133.051 181.087 131.027 183.222 128.394 183.222Z" fill="#FF9B00"/>
<path opacity="0.8" d="M128.394 183.222H48.7061C46.0733 183.222 43.8289 181.087 43.6934 178.454L36.5612 40.0645C36.4257 37.4316 38.4501 35.2972 41.083 35.2972H120.771C123.404 35.2972 125.648 37.4316 125.784 40.0645L132.916 178.454C133.051 181.087 131.027 183.222 128.394 183.222Z" fill="white"/>
<path d="M112.905 30.7836H104.091V31.4082H112.905V30.7836Z" fill="#FF9B00"/>
<path d="M101.038 30.7836H97.8104V31.4082H101.038V30.7836Z" fill="#FF9B00"/>
<path d="M131.82 174.444H55.6072C53.0892 174.444 50.9423 172.403 50.813 169.885L43.992 37.5291C43.862 35.0111 45.7984 32.9698 48.3163 32.9698H124.53C127.048 32.9698 129.195 35.0111 129.324 37.5291L136.145 169.885C136.275 172.403 134.338 174.444 131.82 174.444Z" fill="#FF9B00"/>
<path d="M131.82 171.399H55.6072C54.7189 171.399 53.9 170.618 53.8538 169.728L47.0327 37.3723C47.0083 36.8894 47.2032 36.5771 47.3713 36.4003C47.538 36.2242 47.8379 36.0149 48.317 36.0149H124.53C125.418 36.0149 126.238 36.7957 126.284 37.6859L133.105 170.042C133.129 170.525 132.935 170.837 132.767 171.014C132.599 171.19 132.299 171.399 131.82 171.399ZM48.3157 36.1711C47.8922 36.1711 47.6292 36.3541 47.4837 36.5078C47.3369 36.6627 47.1664 36.9369 47.1882 37.3642L54.0093 169.72C54.0512 170.531 54.7976 171.243 55.6065 171.243H131.82C132.243 171.243 132.505 171.06 132.652 170.906C132.798 170.751 132.97 170.477 132.948 170.049L126.127 37.6933C126.085 36.8819 125.338 36.1705 124.529 36.1705H48.3157V36.1711Z" fill="white"/>
<path opacity="0.3" d="M105.169 84.2478C113.836 75.3539 113.271 60.7468 103.907 51.6219C94.5425 42.4971 79.9256 42.3099 71.259 51.2038C62.5923 60.0977 63.1576 74.7049 72.5218 83.8297C81.8859 92.9546 96.5027 93.1418 105.169 84.2478Z" fill="white"/>
<path d="M106.881 67.7367C107.047 70.9605 106.385 73.9869 105.083 76.6278C102.234 82.4457 96.2725 86.4028 89.176 86.4028C82.0794 86.4028 75.71 82.4457 72.2613 76.6278C70.6872 73.9869 69.7134 70.9605 69.5473 67.7367C69.0157 57.4258 76.9411 49.0699 87.2515 49.0699C97.5618 49.0699 106.349 57.4258 106.881 67.7367Z" fill="white"/>
<path d="M105.083 76.6278C102.234 82.4457 96.2725 86.4028 89.176 86.4028C82.0794 86.4028 75.71 82.4457 72.2613 76.6278C76.7987 73.4884 82.3437 71.6557 88.4158 71.6557C94.4879 71.6557 100.222 73.489 105.083 76.6278Z" fill="#FF9B00"/>
<path d="M93.9958 67.2954C97.1192 64.0901 96.9154 58.8258 93.5406 55.5372C90.1658 52.2487 84.898 52.1812 81.7746 55.3864C78.6512 58.5917 78.855 63.8561 82.2298 67.1446C85.6046 70.4332 90.8724 70.5007 93.9958 67.2954Z" fill="#FF9B00"/>
<path d="M120.898 122.959H61.2233C60.1577 122.959 59.2494 122.095 59.1945 121.03L58.7422 112.261C58.6873 111.195 59.5068 110.332 60.5724 110.332H120.247C121.312 110.332 122.221 111.195 122.276 112.261L122.728 121.03C122.782 122.095 121.963 122.959 120.898 122.959Z" fill="white"/>
<path opacity="0.3" d="M102.623 105.516H77.7007C76.6351 105.516 75.7268 104.652 75.6719 103.587L75.5757 101.725C75.5207 100.66 76.3402 99.7957 77.4059 99.7957H102.328C103.394 99.7957 104.302 100.66 104.357 101.725L104.453 103.587C104.508 104.652 103.689 105.516 102.623 105.516Z" fill="black"/>
<path opacity="0.3" d="M111.891 164.989H74.5619C72.7473 164.989 71.2001 163.518 71.107 161.703L70.8852 157.398C70.7915 155.584 72.187 154.113 74.0016 154.113H111.331C113.145 154.113 114.693 155.584 114.786 157.398L115.007 161.703C115.101 163.518 113.706 164.989 111.891 164.989Z" fill="black"/>
<path d="M121.987 144.095H62.3127C61.247 144.095 60.3388 143.231 60.2838 142.165L59.8322 133.396C59.7772 132.331 60.5968 131.467 61.6624 131.467H121.337C122.402 131.467 123.311 132.331 123.366 133.396L123.818 142.165C123.872 143.231 123.053 144.095 121.987 144.095Z" fill="white"/>
<path d="M68.8121 116.645C68.8726 117.825 67.9657 118.781 66.7864 118.781C65.607 118.781 64.6014 117.825 64.5401 116.645C64.4795 115.466 65.3865 114.51 66.5659 114.51C67.7452 114.51 68.7508 115.466 68.8121 116.645Z" fill="#263238"/>
<path d="M75.3752 116.645C75.4358 117.825 74.5288 118.781 73.3495 118.781C72.1701 118.781 71.1645 117.825 71.1032 116.645C71.0426 115.466 71.9496 114.51 73.1289 114.51C74.3083 114.51 75.3146 115.466 75.3752 116.645Z" fill="#263238"/>
<path d="M81.9383 116.645C81.9989 117.825 81.0919 118.781 79.9125 118.781C78.7332 118.781 77.7276 117.825 77.6663 116.645C77.6058 115.466 78.5127 114.51 79.6921 114.51C80.8714 114.51 81.8777 115.466 81.9383 116.645Z" fill="#263238"/>
<path d="M88.5014 116.645C88.5619 117.825 87.655 118.781 86.4756 118.781C85.2963 118.781 84.2907 117.825 84.2294 116.645C84.1689 115.466 85.0758 114.51 86.2552 114.51C87.4351 114.51 88.4408 115.466 88.5014 116.645Z" fill="#263238"/>
<path d="M69.9008 137.781C69.9614 138.961 69.0544 139.916 67.8751 139.916C66.6958 139.916 65.6901 138.96 65.6289 137.781C65.5683 136.601 66.4753 135.645 67.6546 135.645C68.8339 135.645 69.8402 136.601 69.9008 137.781Z" fill="#263238"/>
<path d="M76.4645 137.781C76.5251 138.961 75.6181 139.916 74.4388 139.916C73.2589 139.916 72.2538 138.96 72.1926 137.781C72.132 136.601 73.039 135.645 74.2183 135.645C75.3976 135.645 76.4033 136.601 76.4645 137.781Z" fill="#263238"/>
<path d="M83.0276 137.781C83.0882 138.961 82.1812 139.916 81.0019 139.916C79.8226 139.916 78.8169 138.96 78.7557 137.781C78.6951 136.601 79.6021 135.645 80.7814 135.645C81.9614 135.644 82.967 136.601 83.0276 137.781Z" fill="#263238"/>
<path d="M89.5907 137.781C89.6513 138.961 88.7443 139.916 87.565 139.916C86.3857 139.916 85.38 138.96 85.3188 137.781C85.2582 136.601 86.1652 135.645 87.3445 135.645C88.5245 135.644 89.5301 136.601 89.5907 137.781Z" fill="#263238"/>
<path d="M96.1538 137.781C96.2144 138.961 95.3075 139.916 94.1281 139.916C92.9488 139.916 91.9431 138.96 91.8819 137.781C91.8213 136.601 92.7283 135.645 93.9076 135.645C95.0869 135.645 96.0932 136.601 96.1538 137.781Z" fill="#263238"/>
<path d="M102.718 137.781C102.778 138.961 101.871 139.916 100.692 139.916C99.5119 139.916 98.5069 138.96 98.4456 137.781C98.385 136.601 99.292 135.645 100.471 135.645C101.651 135.645 102.656 136.601 102.718 137.781Z" fill="#263238"/>
<path d="M173.754 65.2444C173.91 65.4761 173.99 65.6035 174.093 65.7703L174.372 66.2376C174.553 66.5468 174.712 66.8553 174.872 67.1639C175.184 67.7817 175.479 68.3994 175.744 69.0247C176.279 70.2734 176.718 71.5495 177.097 72.8338C177.867 75.4004 178.337 78.0314 178.578 80.6636L178.626 81.1565C178.635 81.2271 178.641 81.3389 178.646 81.4544L178.66 81.7905C178.668 82.234 178.646 82.6737 178.585 83.0891C178.467 83.9268 178.242 84.7001 177.965 85.4153C177.403 86.8395 176.632 88.0494 175.804 89.1506C174.11 91.3437 172.187 93.099 169.989 94.655L168.269 92.6392C169.813 90.854 171.309 88.8752 172.417 86.8994C172.982 85.9144 173.414 84.8981 173.684 83.9511C173.81 83.4776 173.878 83.0223 173.888 82.6119C173.903 82.4045 173.888 82.2127 173.868 82.031L173.849 81.8973C173.845 81.8567 173.84 81.8117 173.824 81.7274L173.745 81.2876C173.336 78.9427 172.779 76.6397 172.047 74.4141C171.688 73.2985 171.244 72.2204 170.793 71.1616C170.57 70.63 170.324 70.1147 170.072 69.6112L169.684 68.8773L169.492 68.5294L169.333 68.257L173.754 65.2444Z" fill="#803E3C"/>
<path d="M167.923 94.6956L170.184 99.4709L171.978 95.4326C171.978 95.4326 170.388 91.9347 168.237 92.2545L167.923 94.6956Z" fill="#7F3E3B"/>
<path d="M171.805 99.7083L173.601 96.7631L171.978 95.4333L170.184 99.4716L171.805 99.7083Z" fill="#7F3E3B"/>
<path d="M161.637 209.907C162.121 209.907 162.649 209.807 163.019 209.719C163.067 209.708 163.104 209.669 163.113 209.621C163.122 209.572 163.1 209.523 163.059 209.496C162.88 209.378 161.291 208.352 160.682 208.628C160.586 208.671 160.465 208.767 160.436 208.976C160.396 209.253 160.466 209.475 160.641 209.635C160.863 209.838 161.235 209.907 161.637 209.907ZM162.669 209.543C161.758 209.725 161.073 209.693 160.808 209.451C160.695 209.349 160.654 209.204 160.681 209.01C160.695 208.906 160.744 208.871 160.784 208.854C161.105 208.706 162.021 209.151 162.669 209.543Z" fill="#407BFF"/>
<path d="M162.99 209.723C163.012 209.723 163.033 209.717 163.053 209.706C163.091 209.683 163.115 209.643 163.115 209.599C163.115 209.535 163.108 208.028 162.539 207.525C162.388 207.391 162.211 207.335 162.014 207.36C161.704 207.397 161.619 207.592 161.597 207.705C161.479 208.295 162.43 209.423 162.929 209.706C162.949 209.718 162.97 209.723 162.99 209.723ZM162.1 207.602C162.202 207.602 162.292 207.637 162.374 207.711C162.714 208.012 162.83 208.857 162.859 209.358C162.362 208.961 161.769 208.113 161.84 207.754C161.852 207.695 161.886 207.624 162.044 207.606C162.063 207.603 162.082 207.602 162.1 207.602Z" fill="#407BFF"/>
<path d="M155.738 207.358C155.768 207.326 155.779 207.281 155.766 207.239C155.751 207.188 155.706 207.153 155.653 207.15C155.394 207.138 153.149 207.044 152.643 207.591C152.632 207.603 152.622 207.616 152.613 207.628C152.528 207.742 152.51 207.875 152.56 208.015C152.643 208.249 152.796 208.402 153.015 208.47C153.742 208.696 155.022 207.88 155.72 207.375C155.727 207.37 155.733 207.364 155.738 207.358ZM152.83 207.754C153.109 207.453 154.344 207.371 155.272 207.386C154.299 208.046 153.496 208.36 153.089 208.234C152.946 208.19 152.849 208.091 152.793 207.933C152.771 207.872 152.777 207.823 152.811 207.777C152.817 207.769 152.823 207.761 152.83 207.754Z" fill="#407BFF"/>
<path d="M155.738 207.358C155.745 207.352 155.75 207.345 155.755 207.336C155.776 207.298 155.777 207.252 155.756 207.213C155.726 207.161 155.028 205.932 154.202 205.709C153.949 205.641 153.709 205.672 153.488 205.802C153.191 205.976 153.174 206.177 153.212 206.314C153.372 206.893 154.964 207.403 155.648 207.398C155.683 207.398 155.715 207.383 155.738 207.358ZM153.495 206.106C153.521 206.078 153.558 206.048 153.614 206.015C153.777 205.92 153.947 205.898 154.137 205.948C154.68 206.095 155.19 206.789 155.417 207.137C154.678 207.052 153.546 206.596 153.45 206.248C153.445 206.227 153.431 206.176 153.495 206.106Z" fill="#407BFF"/>
<path d="M162.615 46.9462C162.007 50.0506 160.639 56.8236 162.811 58.8955C162.811 58.8955 161.962 62.045 156.194 62.045C149.85 62.045 153.162 58.8962 153.162 58.8962C156.625 58.0691 156.535 55.5006 155.932 53.0882L162.615 46.9462Z" fill="#7F3E3B"/>
<path d="M152.044 39.6241C152.081 39.6241 152.119 39.6154 152.154 39.5979C152.277 39.5367 152.326 39.388 152.265 39.2649C151.651 38.0394 150.515 37.897 150.467 37.8914C150.331 37.8751 150.208 37.9738 150.193 38.11C150.177 38.2455 150.275 38.368 150.409 38.3842C150.447 38.3886 151.331 38.5091 151.821 39.4873C151.866 39.5741 151.953 39.6241 152.044 39.6241Z" fill="#263238"/>
<path d="M150.152 42.3376C150.152 42.3376 149.218 44.0528 148.328 44.8261C148.817 45.4108 149.787 45.2909 149.787 45.2909L150.152 42.3376Z" fill="#630F0F"/>
<path d="M150.616 41.6642C150.564 42.0833 150.301 42.395 150.027 42.3613C149.753 42.3276 149.573 41.9603 149.625 41.5418C149.677 41.1226 149.94 40.8109 150.215 40.8447C150.488 40.8784 150.668 41.2451 150.616 41.6642Z" fill="#263238"/>
<path d="M150.332 40.8828L149.362 40.4686C149.362 40.4686 149.781 41.3175 150.332 40.8828Z" fill="#263238"/>
<path d="M161.251 206.171L156.156 207.361L153.06 195.642L158.155 194.452L161.251 206.171Z" fill="#7F3E3B"/>
<path d="M169.075 209.599H163.843L164.253 197.483H169.485L169.075 209.599Z" fill="#7F3E3B"/>
<path d="M163.428 208.993H169.306C169.52 208.993 169.693 209.142 169.723 209.35L170.393 214.001C170.462 214.483 170.048 214.94 169.554 214.931C167.505 214.896 166.517 214.776 163.932 214.776C162.342 214.776 160.018 214.941 157.823 214.941C155.675 214.941 155.51 212.769 156.424 212.573C160.524 211.691 161.172 210.475 162.554 209.315C162.803 209.106 163.115 208.993 163.428 208.993Z" fill="#263238"/>
<path d="M155.705 206.581L161.045 204.124C161.239 204.035 161.459 204.097 161.573 204.274L164.125 208.219C164.39 208.628 164.204 209.217 163.752 209.415C161.875 210.239 160.928 210.543 158.579 211.623C157.134 212.287 154.215 213.812 152.22 214.73C150.268 215.627 149.211 213.723 149.959 213.162C153.316 210.648 154.274 208.869 155.044 207.237C155.184 206.944 155.42 206.712 155.705 206.581Z" fill="#263238"/>
<path opacity="0.2" d="M153.062 195.644L154.72 201.923L159.754 200.495L158.159 194.454L153.062 195.644Z" fill="black"/>
<path opacity="0.2" d="M169.487 197.486H164.252L164.044 203.732H169.277L169.487 197.486Z" fill="black"/>
<path d="M171.835 60.0842C174.009 60.5608 176.33 68.3801 176.33 68.3801L170.184 74.9144C170.184 74.9144 165.085 67.5705 166.124 64.8702C167.206 62.0575 169.266 59.5214 171.835 60.0842Z" fill="#263238"/>
<path opacity="0.4" d="M168.39 65.0607C167.29 64.0551 166.547 64.3549 166.041 65.1544C165.541 67.4781 168.502 72.3441 169.695 74.1867C170.245 71.988 170.876 67.3469 168.39 65.0607Z" fill="black"/>
<path d="M144.318 60.236C144.318 60.236 141.826 61.1136 146.818 91.8147C155.25 91.8147 163.965 91.8147 168.068 91.8147C167.711 83.1659 167.701 77.8334 171.835 60.0842C171.835 60.0842 167.382 59.1154 162.811 58.8955C159.235 58.7231 156.305 58.6088 153.162 58.8962C149.018 59.2741 144.318 60.236 144.318 60.236Z" fill="#263238"/>
<path opacity="0.4" d="M144.129 72.0192C144.266 73.5121 144.447 75.1924 144.685 77.0913C146.425 75.5241 147.847 71.0667 147.327 68.4657C146.109 69.3708 144.984 70.7699 144.129 72.0192Z" fill="black"/>
<path d="M146.397 67.365C145.241 70.2852 143.967 73.0605 142.535 75.832C141.104 78.5998 139.577 81.3195 137.547 83.9492L137.148 84.4408L136.948 84.6863C136.88 84.7688 136.825 84.8419 136.715 84.9549C136.329 85.3815 135.91 85.7463 135.481 86.0524C134.621 86.6658 133.732 87.0562 132.87 87.3567C131.143 87.9376 129.474 88.1431 127.847 88.2412C124.582 88.3736 121.494 88.0706 118.379 87.4004L118.725 84.7731C120.161 84.7806 121.667 84.7488 123.118 84.657C124.577 84.5808 126.022 84.4246 127.407 84.1779C128.789 83.9461 130.126 83.5938 131.242 83.1085C131.792 82.8617 132.271 82.5663 132.622 82.2671C132.8 82.1184 132.938 81.9654 133.049 81.8198C133.073 81.7986 133.129 81.7161 133.176 81.6493L133.322 81.4432L133.615 81.0328C135.154 78.756 136.505 76.1106 137.795 73.4665C139.063 70.8099 140.286 68.0559 141.433 65.3681L146.397 67.365Z" fill="#803E3C"/>
<path d="M144.318 60.236C141.718 60.87 138.518 68.0097 138.518 68.0097L143.916 75.9395C143.916 75.9395 151.102 66.8928 150.248 64.1281C149.357 61.2492 147.473 59.4665 144.318 60.236Z" fill="#263238"/>
<path d="M120.222 85.1629L115.719 83.0841L115.267 87.5597C115.267 87.5597 119.029 88.6672 120.885 87.5322L120.222 85.1629Z" fill="#7F3E3B"/>
<path d="M113.023 82.6319L112.593 86.0405L115.267 87.5603L115.719 83.0841L113.023 82.6319Z" fill="#7F3E3B"/>
<path d="M164.876 41.9684C163.924 47.073 163.63 49.2542 160.705 51.5729C156.306 55.0609 150.245 52.7747 149.652 47.4884C149.12 42.7298 150.766 35.1817 156.054 33.7575C161.265 32.3546 165.828 36.8638 164.876 41.9684Z" fill="#7F3E3B"/>
<path d="M153.663 43.044C153.372 45.6469 153.259 52.4093 158.977 52.6216C165.985 52.8821 168.082 46.8956 167.458 44.5013C171.101 41.5343 171.629 36.4328 167.532 32.5288C163.434 28.6248 154.414 30.8073 151.894 34.6108C148.77 39.3255 153.663 43.044 153.663 43.044Z" fill="#263238"/>
<path d="M160.68 34.0461C160.341 31.3008 160.604 29.4062 163.172 29.4062C165.74 29.4062 169.254 30.3388 170.542 32.9698C171.83 35.6008 171.934 39.7128 168.342 39.2962C164.751 38.8802 161.085 37.3323 160.68 34.0461Z" fill="#407BFF"/>
<path d="M164.663 33.3865C164.05 30.1115 166.968 20.8961 174.086 20.2971C177.383 20.0191 178.909 23.5677 177.183 24.1524C180.297 24.1143 182.305 28.2432 179.392 28.8647C181.695 30.3357 181.121 33.3627 177.842 34.8462C175.424 35.9394 165.51 37.9182 164.663 33.3865Z" fill="#263238"/>
<path d="M172.266 36.9032C169.976 36.9032 167.581 36.5665 166.098 35.5733C165.197 34.9699 164.703 34.1704 164.629 33.1959C164.623 33.1097 164.688 33.0348 164.773 33.0285C164.864 33.0217 164.934 33.0866 164.941 33.1722C165.007 34.0461 165.455 34.7663 166.272 35.3135C169.098 37.2061 175.631 36.5934 177.678 35.925C179.439 35.3503 180.631 34.2366 180.868 32.9461C181.042 31.9991 180.67 31.1021 179.823 30.4194C179.756 30.3651 179.745 30.267 179.799 30.1995C179.853 30.1321 179.951 30.1221 180.019 30.1758C180.946 30.9229 181.368 31.9529 181.176 33.0023C180.919 34.4077 179.648 35.6114 177.776 36.2223C176.703 36.5721 174.536 36.9032 172.266 36.9032Z" fill="#263238"/>
<path d="M152.069 42.3544C151.442 43.2233 151.261 44.3033 151.4 45.1747C151.608 46.4845 152.886 46.572 153.81 45.7319C154.642 44.976 155.537 43.3832 154.856 42.2976C154.184 41.2269 152.787 41.3612 152.069 42.3544Z" fill="#7F3E3B"/>
<path d="M152.43 91.8147C152.43 91.8147 155.467 127.726 158.617 147.965C161.162 164.312 163.168 202.522 163.168 202.522H170.303C170.303 202.522 172.841 165.454 171.549 149.285C168.28 108.373 175.569 105.04 168.068 91.8147H152.43Z" fill="#407BFF"/>
<path opacity="0.4" d="M161.412 105.388C158.532 108.33 156.34 111.846 154.672 115.557C155.503 123.627 156.49 132.584 157.539 140.43C160.787 132.228 163.568 119.611 161.412 105.388Z" fill="black"/>
<path d="M147.436 91.588C147.436 91.588 140.849 130.809 139.808 148.487C142.395 164.835 152.977 199.387 152.977 199.387L159.467 197.035C159.467 197.035 155.877 159.358 151.951 149.042C160.74 119.452 167.199 111.973 165.32 91.8147C160.837 91.8147 147.436 91.588 147.436 91.588Z" fill="#407BFF"/>
<path d="M152.107 201.113L160.877 198.732L160.38 195.236L150.99 197.775L152.107 201.113Z" fill="#263238"/>
<path d="M162.192 202.663H171.28L171.757 199.475L162.14 199.15L162.192 202.663Z" fill="#263238"/>
<path d="M168.387 90.5673L169.345 92.4693C169.419 92.6168 169.244 92.7673 168.999 92.7673H146.713C146.522 92.7673 146.363 92.6736 146.351 92.553L146.159 90.651C146.146 90.5192 146.312 90.4074 146.522 90.4074H168.04C168.199 90.408 168.339 90.4724 168.387 90.5673Z" fill="#407BFF"/>
<path opacity="0.5" d="M168.387 90.5673L169.345 92.4693C169.419 92.6168 169.244 92.7673 168.999 92.7673H146.713C146.522 92.7673 146.363 92.6736 146.351 92.553L146.159 90.651C146.146 90.5192 146.312 90.4074 146.522 90.4074H168.04C168.199 90.408 168.339 90.4724 168.387 90.5673Z" fill="black"/>
<path d="M165.496 92.9734H166.073C166.188 92.9734 166.275 92.9141 166.267 92.8416L165.997 90.3705C165.989 90.2981 165.889 90.2394 165.774 90.2394H165.197C165.082 90.2394 164.995 90.2987 165.003 90.3705L165.273 92.8416C165.281 92.9147 165.382 92.9734 165.496 92.9734Z" fill="#407BFF"/>
<path d="M157.76 74.7708C157.62 74.7708 157.495 74.6764 157.459 74.5403C155.421 67.0109 151.185 60.8182 149.165 59.8631C148.939 59.7563 148.752 59.7257 148.639 59.7763C148.48 59.8475 148.296 59.7769 148.225 59.6195C148.155 59.4621 148.224 59.2772 148.381 59.2066C148.673 59.0748 149.026 59.106 149.432 59.2978C151.588 60.3172 155.861 66.4393 157.998 74.1443C159.53 74.1249 161.893 73.9337 162.463 73.8857C163.177 73.0374 168.415 66.4905 166.455 59.3284C166.409 59.1622 166.507 58.9905 166.674 58.9449C166.839 58.8993 167.012 58.9967 167.057 59.1635C169.239 67.1352 162.913 74.3223 162.849 74.3941C162.796 74.4535 162.722 74.4903 162.644 74.4972C162.612 74.5003 159.497 74.7708 157.76 74.7708Z" fill="#407BFF"/>
<path d="M168.107 79.1864C164.703 72.8038 163.31 72.3578 162.701 70.3058C162.701 70.3058 163.25 68.7567 164.643 67.1883C164.225 67.0721 163.341 66.8953 162.786 66.7885C162.849 66.5093 162.914 66.2332 162.977 65.9683C162.516 65.8403 161.561 65.9721 161.073 66.0539L161.051 65.4243C161.051 65.4243 159.324 65.0776 158.63 65.2706C158.7 65.5611 158.77 65.8634 158.84 66.1701C158.232 66.2875 157.262 66.4812 156.805 66.6086C158.131 68.1021 158.609 69.6968 158.712 70.0903C156.878 73.2417 149.743 93.5206 161.346 95.0454C172.955 96.5707 171.512 85.5689 168.107 79.1864Z" fill="#407BFF"/>
<path opacity="0.4" d="M168.107 79.1864C164.703 72.8038 163.31 72.3578 162.701 70.3058C162.701 70.3058 163.25 68.7567 164.643 67.1883C164.225 67.0721 163.341 66.8953 162.786 66.7885C162.849 66.5093 162.914 66.2332 162.977 65.9683C162.516 65.8403 161.561 65.9721 161.073 66.0539L161.051 65.4243C161.051 65.4243 159.324 65.0776 158.63 65.2706C158.7 65.5611 158.77 65.8634 158.84 66.1701C158.232 66.2875 157.262 66.4812 156.805 66.6086C158.131 68.1021 158.609 69.6968 158.712 70.0903C156.878 73.2417 149.743 93.5206 161.346 95.0454C172.955 96.5707 171.512 85.5689 168.107 79.1864Z" fill="white"/>
<path d="M158.279 69.4863C158.193 69.6412 158.201 70.2284 158.188 70.4626C158.174 70.6969 158.799 70.853 159.502 70.918C160.204 70.9829 163.107 71.1004 163.015 70.7749C162.924 70.4495 163.158 70.0073 163.172 69.7337C163.185 69.4601 162.013 69.4476 161.037 69.4863C160.061 69.525 158.474 69.1346 158.279 69.4863Z" fill="#407BFF"/>
<path d="M151.527 92.9734H152.104C152.218 92.9734 152.306 92.9141 152.298 92.8416L152.027 90.3705C152.019 90.2981 151.919 90.2394 151.804 90.2394H151.228C151.113 90.2394 151.025 90.2987 151.034 90.3705L151.304 92.8416C151.312 92.9147 151.412 92.9734 151.527 92.9734Z" fill="#407BFF"/>
</svg>
