<svg width="18" height="21" viewBox="0 0 18 21" fill="none" xmlns="http://www.w3.org/2000/svg">
<path d="M12.7192 12.8205H11.938L11.6612 12.5159C12.6638 11.1892 13.2147 9.49537 13.2136 7.74359C13.2136 6.2932 12.8366 4.87537 12.1304 3.66941C11.4242 2.46345 10.4205 1.52352 9.24608 0.968475C8.07171 0.413433 6.77946 0.268208 5.53275 0.551167C4.28604 0.834125 3.14086 1.53256 2.24204 2.55814C1.34321 3.58373 0.7311 4.8904 0.483114 6.31293C0.235128 7.73546 0.362404 9.20994 0.848846 10.5499C1.33529 11.8899 2.15905 13.0352 3.21596 13.841C4.27287 14.6468 5.51545 15.0769 6.78659 15.0769C8.3785 15.0769 9.84187 14.4113 10.9691 13.3056L11.236 13.6215V14.5128L16.1798 20.1426L17.6531 18.4615L12.7192 12.8205ZM6.78659 12.8205C4.32457 12.8205 2.33715 10.5528 2.33715 7.74359C2.33715 4.93436 4.32457 2.66667 6.78659 2.66667C9.24861 2.66667 11.236 4.93436 11.236 7.74359C11.236 10.5528 9.24861 12.8205 6.78659 12.8205Z" fill="#94A3B8"/>
</svg>
