<svg width="347" height="297" viewBox="0 0 347 297" fill="none" xmlns="http://www.w3.org/2000/svg">
<path d="M167.547 96.9308C179.759 91.8721 185.558 77.8712 180.499 65.6589C175.441 53.4465 161.44 47.6473 149.228 52.7059C137.015 57.7645 131.216 71.7654 136.275 83.9778C141.333 96.1902 155.334 101.989 167.547 96.9308Z" fill="#F5F5F5"/>
<path d="M255.019 187.519C249.49 187.519 244.221 188.619 239.408 190.603C232.66 177.203 218.79 168.006 202.764 168.006C181.152 168.006 163.458 184.725 161.878 205.933C160.26 205.739 158.617 205.627 156.946 205.627C134.295 205.627 115.933 223.99 115.933 246.64C115.933 269.292 134.295 287.654 156.946 287.654C166.496 287.654 175.276 284.38 182.246 278.908C189.76 287.384 200.723 292.731 212.939 292.731C229.323 292.731 243.459 283.12 250.029 269.231C251.665 269.43 253.329 269.544 255.019 269.544C277.671 269.544 296.032 251.181 296.032 228.53C296.033 205.881 277.671 187.519 255.019 187.519Z" fill="#E6E6E6"/>
<path d="M75.4767 178.47C73.723 178.47 72.0116 178.647 70.3552 178.977C66.1674 170.215 57.2234 164.16 46.8642 164.16C32.6789 164.16 21.1534 175.512 20.8554 189.625C19.4893 189.261 18.0612 189.048 16.5798 189.048C7.42295 189.048 0 196.471 0 205.628C0 214.035 6.26188 220.962 14.3722 222.044C15.9251 234.932 26.8925 244.923 40.1992 244.923C51.3284 244.923 60.8212 237.934 64.5404 228.107C67.866 229.65 71.5688 230.517 75.4767 230.517C89.8489 230.517 101.5 218.866 101.5 204.494C101.5 190.122 89.8489 178.47 75.4767 178.47Z" fill="#E6E6E6"/>
<path d="M178.972 85.3545C178.355 85.3545 177.753 85.4165 177.17 85.5328C175.695 82.4483 172.547 80.3165 168.9 80.3165C163.907 80.3165 159.849 84.3123 159.744 89.2804C159.263 89.1521 158.76 89.0771 158.239 89.0771C155.016 89.0771 152.403 91.6904 152.403 94.9135C152.403 97.873 154.607 100.311 157.462 100.692C158.009 105.229 161.87 108.746 166.554 108.746C170.471 108.746 173.813 106.286 175.122 102.827C176.293 103.37 177.597 103.675 178.972 103.675C184.031 103.675 188.132 99.5733 188.132 94.5147C188.133 89.4553 184.032 85.3545 178.972 85.3545Z" fill="#E6E6E6"/>
<path d="M331.916 267.585C331.193 267.585 330.488 267.656 329.794 267.76C330.115 265.885 330.29 263.962 330.29 261.995C330.29 243.201 315.054 227.965 296.26 227.965C282.966 227.965 271.46 235.592 265.86 246.705C265.32 246.668 264.777 246.642 264.227 246.642C251.955 246.642 241.897 256.096 240.923 268.118C239.707 267.78 238.433 267.585 237.11 267.585C229.256 267.585 222.889 273.952 222.889 281.806H163.637C164.944 279.888 165.709 277.572 165.709 275.076C165.709 268.461 160.347 263.1 153.734 263.1C153.275 263.1 152.824 263.132 152.379 263.182C150.011 251.775 139.905 243.202 127.796 243.202C123.387 243.202 119.247 244.341 115.646 246.336C113.485 227.191 97.2442 212.309 77.5206 212.309C58.7849 212.309 43.194 225.738 39.8262 243.495C27.9054 245.325 18.7546 255.541 18.5694 267.928C12.1938 269.334 7.4212 275.009 7.4212 281.807C7.4212 289.66 13.7882 296.027 21.6418 296.027H331.916C339.77 296.027 346.137 289.66 346.137 281.807C346.137 273.953 339.77 267.585 331.916 267.585Z" fill="#F0F0F0"/>
<path d="M72.3483 105.086C72.4612 104.468 72.5284 103.835 72.5284 103.185C72.5284 97.3571 67.804 92.6318 61.9762 92.6318C61.1579 92.6318 60.3646 92.7343 59.6006 92.9101C56.9314 87.3304 51.2509 83.4664 44.6531 83.4664C38.3352 83.4664 32.8451 87.0022 30.0467 92.2003C29.3981 92.1237 28.7426 92.072 28.0733 92.072C18.9165 92.072 11.4936 99.4949 11.4936 108.652C11.4936 117.809 18.9165 125.232 28.0733 125.232C31.5204 125.232 34.7202 124.178 37.3723 122.378C40.2974 127.086 45.4998 130.231 51.4499 130.231C58.2871 130.231 64.1536 126.09 66.6894 120.182C67.7178 120.656 68.8582 120.927 70.0641 120.927C74.531 120.927 78.1511 117.306 78.1511 112.84C78.1503 109.169 75.7015 106.073 72.3483 105.086Z" fill="#F0F0F0"/>
<path d="M73.1614 16.3696C73.214 16.0819 73.245 15.7874 73.245 15.4842C73.245 12.7701 71.0451 10.5703 68.3311 10.5703C67.9504 10.5703 67.5809 10.6177 67.2243 10.6995C65.9814 8.10085 63.3362 6.30152 60.263 6.30152C57.3207 6.30152 54.7643 7.94753 53.4611 10.3687C53.1587 10.3326 52.8538 10.3093 52.542 10.3093C48.2776 10.3093 44.821 13.7658 44.821 18.0303C44.821 22.2947 48.2776 25.7512 52.542 25.7512C54.1475 25.7512 55.6376 25.2611 56.8728 24.4222C58.2346 26.6143 60.6575 28.0794 63.4284 28.0794C66.6127 28.0794 69.344 26.1518 70.5249 23.3998C71.0038 23.6203 71.5344 23.7469 72.0968 23.7469C74.1769 23.7469 75.8626 22.0604 75.8626 19.9803C75.8634 18.2706 74.7222 16.8287 73.1614 16.3696Z" fill="#F0F0F0"/>
<path d="M332.91 109.802C332.962 109.515 332.993 109.22 332.993 108.917C332.993 106.203 330.793 104.003 328.079 104.003C327.698 104.003 327.329 104.051 326.972 104.133C325.729 101.535 323.084 99.7352 320.011 99.7352C317.069 99.7352 314.512 101.381 313.209 103.802C312.908 103.766 312.602 103.743 312.29 103.743C308.026 103.743 304.569 107.2 304.569 111.464C304.569 115.728 308.026 119.185 312.29 119.185C313.896 119.185 315.386 118.695 316.621 117.856C317.983 120.048 320.406 121.513 323.176 121.513C326.361 121.513 329.092 119.585 330.273 116.834C330.752 117.054 331.282 117.181 331.844 117.181C333.924 117.181 335.611 115.494 335.611 113.415C335.611 111.703 334.471 110.262 332.91 109.802Z" fill="#E6E6E6"/>
<path d="M261.573 15.5384C261.517 15.2309 261.484 14.9148 261.484 14.5901C261.484 11.6831 263.84 9.32738 266.746 9.32738C267.155 9.32738 267.55 9.3782 267.932 9.46606C269.263 6.6831 272.096 4.7563 275.386 4.7563C278.537 4.7563 281.275 6.51944 282.671 9.11205C282.994 9.07329 283.321 9.04831 283.655 9.04831C288.222 9.04831 291.924 12.7503 291.924 17.3171C291.924 21.8839 288.222 25.5859 283.655 25.5859C281.936 25.5859 280.34 25.0604 279.017 24.1629C277.558 26.5109 274.963 28.0794 271.995 28.0794C268.585 28.0794 265.659 26.0148 264.395 23.0682C263.882 23.3042 263.313 23.4394 262.712 23.4394C260.485 23.4394 258.678 21.6332 258.678 19.4058C258.679 17.5746 259.901 16.0303 261.573 15.5384Z" fill="#F0F0F0"/>
<path d="M237.547 221.112C237.66 220.495 237.727 219.862 237.727 219.211C237.727 213.384 233.003 208.658 227.175 208.658C226.357 208.658 225.564 208.761 224.8 208.936C222.13 203.357 216.45 199.493 209.852 199.493C203.534 199.493 198.044 203.029 195.246 208.227C194.597 208.15 193.942 208.098 193.272 208.098C184.115 208.098 176.693 215.521 176.693 224.678C176.693 233.835 184.115 241.258 193.272 241.258C196.719 241.258 199.919 240.205 202.571 238.404C205.496 243.112 210.699 246.257 216.649 246.257C223.486 246.257 229.353 242.117 231.888 236.209C232.917 236.683 234.056 236.954 235.263 236.954C239.73 236.954 243.35 233.333 243.35 228.867C243.35 225.194 240.9 222.098 237.547 221.112Z" fill="#F0F0F0"/>
<path d="M274.474 186.302C274.361 185.685 274.294 185.052 274.294 184.401C274.294 178.574 279.019 173.848 284.846 173.848C285.665 173.848 286.458 173.951 287.222 174.127C289.891 168.547 295.572 164.683 302.169 164.683C308.487 164.683 313.977 168.219 316.776 173.417C317.425 173.34 318.08 173.289 318.749 173.289C327.906 173.289 335.329 180.712 335.329 189.868C335.329 199.025 327.906 206.448 318.749 206.448C315.302 206.448 312.102 205.395 309.45 203.595C306.525 208.303 301.323 211.447 295.373 211.447C288.535 211.447 282.669 207.307 280.133 201.399C279.105 201.873 277.964 202.144 276.758 202.144C272.292 202.144 268.671 198.523 268.671 194.057C268.671 190.385 271.121 187.29 274.474 186.302Z" fill="#F0F0F0"/>
<path d="M52.2828 36.9795C52.2828 39.3912 54.2381 41.3465 56.6489 41.3465C57.0848 41.3465 57.5051 41.2801 57.903 41.1621C57.8393 41.5997 57.8048 42.0476 57.8048 42.5032C57.8048 47.6101 61.9444 51.7505 67.0521 51.7505C67.6343 51.7505 68.2028 51.6945 68.7558 51.5911C70.177 53.9167 72.7317 55.4749 75.6576 55.4749C78.3975 55.4749 80.8144 54.1105 82.2761 52.027C82.8782 52.2897 83.5423 52.4378 84.2417 52.4378C84.7326 52.4378 85.2063 52.3637 85.6534 52.2294C85.5819 52.7221 85.5431 53.2259 85.5431 53.7384C85.5431 59.4887 90.2046 64.1493 95.954 64.1493C96.6095 64.1493 97.2503 64.0856 97.8722 63.9702C99.4726 66.5886 102.349 68.3432 105.642 68.3432C110.628 68.3432 114.671 64.338 114.745 59.3707C114.796 59.3715 114.846 59.3784 114.896 59.3784C118.654 59.3784 121.834 56.9073 122.901 53.5007C124.217 54.7229 125.975 55.474 127.913 55.474C131.957 55.474 135.238 52.2242 135.297 48.1949C135.338 48.1958 135.378 48.2009 135.42 48.2009C139.178 48.2009 142.224 45.1553 142.224 41.3973C142.224 37.6402 139.178 34.5936 135.42 34.5936H124.839C124.134 27.771 118.368 22.4497 111.359 22.4497C110.505 22.4497 109.672 22.5324 108.863 22.6831C106.779 19.274 103.035 16.9906 98.7482 16.9906C94.3141 16.9906 90.4527 19.4265 88.4208 23.032C86.7128 20.8356 84.0539 19.4161 81.0565 19.4161C75.9445 19.4161 71.798 23.5238 71.7214 28.6177C71.6688 28.6169 71.618 28.61 71.5655 28.61C68.5086 28.61 65.8307 30.2103 64.3053 32.6134H56.5206L56.5266 32.6195C54.1717 32.6849 52.2828 34.61 52.2828 36.9795Z" fill="#407BFF"/>
<path opacity="0.7" d="M52.2828 36.9795C52.2828 39.3912 54.2381 41.3465 56.6489 41.3465C57.0848 41.3465 57.5051 41.2801 57.903 41.1621C57.8393 41.5997 57.8048 42.0476 57.8048 42.5032C57.8048 47.6101 61.9444 51.7505 67.0521 51.7505C67.6343 51.7505 68.2028 51.6945 68.7558 51.5911C70.177 53.9167 72.7317 55.4749 75.6576 55.4749C78.3975 55.4749 80.8144 54.1105 82.2761 52.027C82.8782 52.2897 83.5423 52.4378 84.2417 52.4378C84.7326 52.4378 85.2063 52.3637 85.6534 52.2294C85.5819 52.7221 85.5431 53.2259 85.5431 53.7384C85.5431 59.4887 90.2046 64.1493 95.954 64.1493C96.6095 64.1493 97.2503 64.0856 97.8722 63.9702C99.4726 66.5886 102.349 68.3432 105.642 68.3432C110.628 68.3432 114.671 64.338 114.745 59.3707C114.796 59.3715 114.846 59.3784 114.896 59.3784C118.654 59.3784 121.834 56.9073 122.901 53.5007C124.217 54.7229 125.975 55.474 127.913 55.474C131.957 55.474 135.238 52.2242 135.297 48.1949C135.338 48.1958 135.378 48.2009 135.42 48.2009C139.178 48.2009 142.224 45.1553 142.224 41.3973C142.224 37.6402 139.178 34.5936 135.42 34.5936H124.839C124.134 27.771 118.368 22.4497 111.359 22.4497C110.505 22.4497 109.672 22.5324 108.863 22.6831C106.779 19.274 103.035 16.9906 98.7482 16.9906C94.3141 16.9906 90.4527 19.4265 88.4208 23.032C86.7128 20.8356 84.0539 19.4161 81.0565 19.4161C75.9445 19.4161 71.798 23.5238 71.7214 28.6177C71.6688 28.6169 71.618 28.61 71.5655 28.61C68.5086 28.61 65.8307 30.2103 64.3053 32.6134H56.5206L56.5266 32.6195C54.1717 32.6849 52.2828 34.61 52.2828 36.9795Z" fill="white"/>
<path d="M309.965 54.7203C309.965 57.2372 307.925 59.2768 305.409 59.2768C304.954 59.2768 304.515 59.2079 304.101 59.0839C304.167 59.5404 304.203 60.0072 304.203 60.4827C304.203 65.8117 299.883 70.1321 294.554 70.1321C293.946 70.1321 293.352 70.0736 292.776 69.9659C291.293 72.3931 288.626 74.0193 285.573 74.0193C280.953 74.0193 277.205 70.307 277.136 65.7023C277.088 65.7032 277.043 65.7092 276.995 65.7092C275.435 65.7092 273.983 65.2458 272.767 64.4534C271.947 64.9357 270.995 65.2174 269.975 65.2174C269.627 65.2174 269.287 65.1838 268.958 65.1226C268.109 66.5111 266.583 67.4413 264.837 67.4413C262.193 67.4413 260.049 65.3173 260.009 62.6825C259.982 62.6834 259.956 62.6868 259.929 62.6868C257.59 62.6868 255.678 60.8806 255.499 58.5877H253.119L253.123 58.5843C251.717 58.5447 250.589 57.3956 250.589 55.9805C250.589 54.5403 251.756 53.3732 253.196 53.3732C253.456 53.3732 253.708 53.4129 253.944 53.4835C253.907 53.2216 253.886 52.9546 253.886 52.6833C253.886 49.6342 256.358 47.1622 259.407 47.1622C259.755 47.1622 260.094 47.1958 260.424 47.2569C261.273 45.8685 262.799 44.9382 264.545 44.9382C265.371 44.9382 266.149 45.1458 266.828 45.511C268.002 41.5049 271.698 38.5764 276.084 38.5764C276.691 38.5764 277.285 38.635 277.862 38.7427C279.345 36.3154 282.011 34.6901 285.064 34.6901C289.685 34.6901 293.433 38.4024 293.501 43.0071C293.548 43.0062 293.594 43.0002 293.642 43.0002C297.729 43.0002 301.072 46.157 301.384 50.1639H305.543L305.536 50.1708C307.994 50.2388 309.965 52.2475 309.965 54.7203Z" fill="#407BFF"/>
<path opacity="0.7" d="M309.965 54.7203C309.965 57.2372 307.925 59.2768 305.409 59.2768C304.954 59.2768 304.515 59.2079 304.101 59.0839C304.167 59.5404 304.203 60.0072 304.203 60.4827C304.203 65.8117 299.883 70.1321 294.554 70.1321C293.946 70.1321 293.352 70.0736 292.776 69.9659C291.293 72.3931 288.626 74.0193 285.573 74.0193C280.953 74.0193 277.205 70.307 277.136 65.7023C277.088 65.7032 277.043 65.7092 276.995 65.7092C275.435 65.7092 273.983 65.2458 272.767 64.4534C271.947 64.9357 270.995 65.2174 269.975 65.2174C269.627 65.2174 269.287 65.1838 268.958 65.1226C268.109 66.5111 266.583 67.4413 264.837 67.4413C262.193 67.4413 260.049 65.3173 260.009 62.6825C259.982 62.6834 259.956 62.6868 259.929 62.6868C257.59 62.6868 255.678 60.8806 255.499 58.5877H253.119L253.123 58.5843C251.717 58.5447 250.589 57.3956 250.589 55.9805C250.589 54.5403 251.756 53.3732 253.196 53.3732C253.456 53.3732 253.708 53.4129 253.944 53.4835C253.907 53.2216 253.886 52.9546 253.886 52.6833C253.886 49.6342 256.358 47.1622 259.407 47.1622C259.755 47.1622 260.094 47.1958 260.424 47.2569C261.273 45.8685 262.799 44.9382 264.545 44.9382C265.371 44.9382 266.149 45.1458 266.828 45.511C268.002 41.5049 271.698 38.5764 276.084 38.5764C276.691 38.5764 277.285 38.635 277.862 38.7427C279.345 36.3154 282.011 34.6901 285.064 34.6901C289.685 34.6901 293.433 38.4024 293.501 43.0071C293.548 43.0062 293.594 43.0002 293.642 43.0002C297.729 43.0002 301.072 46.157 301.384 50.1639H305.543L305.536 50.1708C307.994 50.2388 309.965 52.2475 309.965 54.7203Z" fill="white"/>
<path d="M289.065 188.512C289.065 190.909 287.122 192.853 284.725 192.853C284.292 192.853 283.873 192.787 283.479 192.669C283.542 193.104 283.576 193.55 283.576 194.002C283.576 199.079 279.461 203.194 274.384 203.194C273.805 203.194 273.24 203.138 272.691 203.035C271.278 205.348 268.738 206.897 265.83 206.897C261.429 206.897 257.858 203.36 257.793 198.974C257.748 198.975 257.704 198.981 257.659 198.981C256.172 198.981 254.79 198.54 253.631 197.785C252.85 198.245 251.943 198.513 250.971 198.513C250.64 198.513 250.317 198.481 250.002 198.422C249.193 199.745 247.74 200.632 246.076 200.632C243.558 200.632 241.515 198.608 241.478 196.098C241.452 196.099 241.427 196.103 241.401 196.103C239.174 196.103 237.351 194.382 237.18 192.197H234.913L234.917 192.194C233.577 192.157 232.503 191.062 232.503 189.713C232.503 188.341 233.615 187.229 234.987 187.229C235.236 187.229 235.475 187.267 235.701 187.334C235.664 187.085 235.645 186.83 235.645 186.572C235.645 183.667 238 181.312 240.905 181.312C241.236 181.312 241.559 181.344 241.874 181.402C242.683 180.079 244.136 179.193 245.8 179.193C246.587 179.193 247.328 179.39 247.975 179.739C249.093 175.923 252.614 173.133 256.792 173.133C257.371 173.133 257.936 173.189 258.485 173.291C259.899 170.978 262.438 169.431 265.346 169.431C269.747 169.431 273.318 172.967 273.383 177.353C273.428 177.352 273.472 177.346 273.517 177.346C277.411 177.346 280.595 180.353 280.892 184.171H284.854L284.849 184.177C287.187 184.242 289.065 186.155 289.065 188.512Z" fill="#407BFF"/>
<path opacity="0.7" d="M289.065 188.512C289.065 190.909 287.122 192.853 284.725 192.853C284.292 192.853 283.873 192.787 283.479 192.669C283.542 193.104 283.576 193.55 283.576 194.002C283.576 199.079 279.461 203.194 274.384 203.194C273.805 203.194 273.24 203.138 272.691 203.035C271.278 205.348 268.738 206.897 265.83 206.897C261.429 206.897 257.858 203.36 257.793 198.974C257.748 198.975 257.704 198.981 257.659 198.981C256.172 198.981 254.79 198.54 253.631 197.785C252.85 198.245 251.943 198.513 250.971 198.513C250.64 198.513 250.317 198.481 250.002 198.422C249.193 199.745 247.74 200.632 246.076 200.632C243.558 200.632 241.515 198.608 241.478 196.098C241.452 196.099 241.427 196.103 241.401 196.103C239.174 196.103 237.351 194.382 237.18 192.197H234.913L234.917 192.194C233.577 192.157 232.503 191.062 232.503 189.713C232.503 188.341 233.615 187.229 234.987 187.229C235.236 187.229 235.475 187.267 235.701 187.334C235.664 187.085 235.645 186.83 235.645 186.572C235.645 183.667 238 181.312 240.905 181.312C241.236 181.312 241.559 181.344 241.874 181.402C242.683 180.079 244.136 179.193 245.8 179.193C246.587 179.193 247.328 179.39 247.975 179.739C249.093 175.923 252.614 173.133 256.792 173.133C257.371 173.133 257.936 173.189 258.485 173.291C259.899 170.978 262.438 169.431 265.346 169.431C269.747 169.431 273.318 172.967 273.383 177.353C273.428 177.352 273.472 177.346 273.517 177.346C277.411 177.346 280.595 180.353 280.892 184.171H284.854L284.849 184.177C287.187 184.242 289.065 186.155 289.065 188.512Z" fill="white"/>
<path d="M214.049 217.554C214.049 214.481 211.558 211.99 208.484 211.99C207.929 211.99 207.393 212.074 206.887 212.225C206.968 211.667 207.011 211.098 207.011 210.517C207.011 204.01 201.736 198.734 195.228 198.734C194.487 198.734 193.762 198.805 193.058 198.937C191.247 195.973 187.991 193.988 184.264 193.988C180.773 193.988 177.693 195.726 175.83 198.382C175.062 198.047 174.216 197.858 173.325 197.858C172.699 197.858 172.096 197.953 171.526 198.123C171.618 197.495 171.667 196.854 171.667 196.2C171.667 188.873 165.727 182.933 158.4 182.933C157.564 182.933 156.749 183.014 155.956 183.161C153.916 179.824 150.251 177.589 146.054 177.589C139.702 177.589 134.549 182.693 134.455 189.023C134.39 189.022 134.326 189.014 134.262 189.014C129.474 189.014 125.422 192.163 124.063 196.503C122.386 194.946 120.146 193.989 117.676 193.989C112.523 193.989 108.343 198.129 108.266 203.265C108.213 203.264 108.163 203.257 108.109 203.257C103.321 203.257 99.439 207.139 99.439 211.927C99.439 216.715 103.32 220.597 108.109 220.597H121.592C122.49 229.291 129.837 236.073 138.769 236.073C139.856 236.073 140.919 235.968 141.95 235.776C144.605 240.119 149.376 243.029 154.84 243.029C160.491 243.029 165.411 239.925 168 235.331C170.177 238.13 173.564 239.938 177.384 239.938C183.899 239.938 189.183 234.704 189.279 228.213C189.346 228.214 189.41 228.223 189.477 228.223C193.373 228.223 196.786 226.185 198.729 223.122H208.649L208.642 223.114C211.64 223.027 214.049 220.574 214.049 217.554Z" fill="#407BFF"/>
<path opacity="0.7" d="M214.049 217.554C214.049 214.481 211.558 211.99 208.484 211.99C207.929 211.99 207.393 212.074 206.887 212.225C206.968 211.667 207.011 211.098 207.011 210.517C207.011 204.01 201.736 198.734 195.228 198.734C194.487 198.734 193.762 198.805 193.058 198.937C191.247 195.973 187.991 193.988 184.264 193.988C180.773 193.988 177.693 195.726 175.83 198.382C175.062 198.047 174.216 197.858 173.325 197.858C172.699 197.858 172.096 197.953 171.526 198.123C171.618 197.495 171.667 196.854 171.667 196.2C171.667 188.873 165.727 182.933 158.4 182.933C157.564 182.933 156.749 183.014 155.956 183.161C153.916 179.824 150.251 177.589 146.054 177.589C139.702 177.589 134.549 182.693 134.455 189.023C134.39 189.022 134.326 189.014 134.262 189.014C129.474 189.014 125.422 192.163 124.063 196.503C122.386 194.946 120.146 193.989 117.676 193.989C112.523 193.989 108.343 198.129 108.266 203.265C108.213 203.264 108.163 203.257 108.109 203.257C103.321 203.257 99.439 207.139 99.439 211.927C99.439 216.715 103.32 220.597 108.109 220.597H121.592C122.49 229.291 129.837 236.073 138.769 236.073C139.856 236.073 140.919 235.968 141.95 235.776C144.605 240.119 149.376 243.029 154.84 243.029C160.491 243.029 165.411 239.925 168 235.331C170.177 238.13 173.564 239.938 177.384 239.938C183.899 239.938 189.183 234.704 189.279 228.213C189.346 228.214 189.41 228.223 189.477 228.223C193.373 228.223 196.786 226.185 198.729 223.122H208.649L208.642 223.114C211.64 223.027 214.049 220.574 214.049 217.554Z" fill="white"/>
<path d="M14.0276 72.2234C14.0276 69.1502 16.5186 66.6593 19.5918 66.6593C20.1474 66.6593 20.6832 66.7437 21.1896 66.8944C21.1086 66.3363 21.0647 65.7669 21.0647 65.1864C21.0647 58.679 26.3404 53.4034 32.8477 53.4034C33.5893 53.4034 34.3146 53.4749 35.0183 53.6066C36.8297 50.6428 40.0855 48.6574 43.8125 48.6574C47.3034 48.6574 50.3836 50.3956 52.2466 53.0511C53.0141 52.716 53.8599 52.5274 54.7514 52.5274C55.3776 52.5274 55.9805 52.6222 56.5498 52.7927C56.4585 52.1648 56.4094 51.5231 56.4094 50.8693C56.4094 43.542 62.3492 37.6023 69.6765 37.6023C70.512 37.6023 71.3277 37.6832 72.1201 37.8305C74.1589 34.4937 77.8247 32.2586 82.022 32.2586C88.3743 32.2586 93.5276 37.3628 93.6215 43.6927C93.6861 43.6919 93.7499 43.6833 93.8145 43.6833C98.6026 43.6833 102.654 46.8323 104.013 51.1725C105.69 49.6152 107.931 48.6583 110.4 48.6583C115.554 48.6583 119.734 52.7987 119.81 57.934C119.863 57.9331 119.914 57.9262 119.967 57.9262C124.755 57.9262 128.636 61.8082 128.636 66.5964C128.636 71.3845 124.755 75.2665 119.967 75.2665H106.485C105.586 83.9608 98.2391 90.7421 89.3071 90.7421C88.2201 90.7421 87.1572 90.637 86.1262 90.4449C83.4716 94.7895 78.6998 97.6982 73.2364 97.6982C67.5852 97.6982 62.6653 94.5948 60.0761 90.0005C57.9004 92.7998 54.5119 94.6086 50.6919 94.6086C44.1777 94.6086 38.8934 89.3743 38.7969 82.8833C38.7306 82.8841 38.6652 82.8936 38.5988 82.8936C34.703 82.8936 31.2904 80.8549 29.3473 77.792H19.4282L19.4351 77.7842C16.4351 77.6964 14.0276 75.2441 14.0276 72.2234Z" fill="#407BFF"/>
<path opacity="0.8" d="M14.0276 72.2234C14.0276 69.1502 16.5186 66.6593 19.5918 66.6593C20.1474 66.6593 20.6832 66.7437 21.1896 66.8944C21.1086 66.3363 21.0647 65.7669 21.0647 65.1864C21.0647 58.679 26.3404 53.4034 32.8477 53.4034C33.5893 53.4034 34.3146 53.4749 35.0183 53.6066C36.8297 50.6428 40.0855 48.6574 43.8125 48.6574C47.3034 48.6574 50.3836 50.3956 52.2466 53.0511C53.0141 52.716 53.8599 52.5274 54.7514 52.5274C55.3776 52.5274 55.9805 52.6222 56.5498 52.7927C56.4585 52.1648 56.4094 51.5231 56.4094 50.8693C56.4094 43.542 62.3492 37.6023 69.6765 37.6023C70.512 37.6023 71.3277 37.6832 72.1201 37.8305C74.1589 34.4937 77.8247 32.2586 82.022 32.2586C88.3743 32.2586 93.5276 37.3628 93.6215 43.6927C93.6861 43.6919 93.7499 43.6833 93.8145 43.6833C98.6026 43.6833 102.654 46.8323 104.013 51.1725C105.69 49.6152 107.931 48.6583 110.4 48.6583C115.554 48.6583 119.734 52.7987 119.81 57.934C119.863 57.9331 119.914 57.9262 119.967 57.9262C124.755 57.9262 128.636 61.8082 128.636 66.5964C128.636 71.3845 124.755 75.2665 119.967 75.2665H106.485C105.586 83.9608 98.2391 90.7421 89.3071 90.7421C88.2201 90.7421 87.1572 90.637 86.1262 90.4449C83.4716 94.7895 78.6998 97.6982 73.2364 97.6982C67.5852 97.6982 62.6653 94.5948 60.0761 90.0005C57.9004 92.7998 54.5119 94.6086 50.6919 94.6086C44.1777 94.6086 38.8934 89.3743 38.7969 82.8833C38.7306 82.8841 38.6652 82.8936 38.5988 82.8936C34.703 82.8936 31.2904 80.8549 29.3473 77.792H19.4282L19.4351 77.7842C16.4351 77.6964 14.0276 75.2441 14.0276 72.2234Z" fill="white"/>
<path d="M72.3915 226.263C72.3915 224.153 74.1021 222.442 76.2115 222.442C76.5931 222.442 76.9608 222.5 77.3088 222.604C77.2528 222.221 77.2235 221.83 77.2235 221.431C77.2235 216.962 80.8463 213.34 85.314 213.34C85.8231 213.34 86.3209 213.39 86.8041 213.48C88.0479 211.445 90.283 210.082 92.8429 210.082C94.4415 210.082 95.911 210.618 97.0953 211.512C98.24 207.655 101.799 204.837 106.028 204.837C109.401 204.837 112.348 206.634 113.987 209.316C114.623 209.197 115.28 209.133 115.952 209.133C121.841 209.133 126.616 213.907 126.616 219.797C126.616 220.322 126.576 220.838 126.503 221.343C126.961 221.206 127.446 221.13 127.949 221.13C130.73 221.13 132.984 223.384 132.984 226.166C132.984 228.899 130.805 231.118 128.09 231.194L128.096 231.201H123.5C123.156 235.63 119.461 239.118 114.944 239.118C114.891 239.118 114.84 239.111 114.789 239.111C114.713 244.198 110.571 248.301 105.465 248.301C102.091 248.301 99.1453 246.504 97.5062 243.822C96.8696 243.941 96.2133 244.006 95.5423 244.006C90.5828 244.006 86.426 240.614 85.2331 236.029C82.202 235.634 79.8274 233.161 79.5879 230.084H76.1012L76.1064 230.079C74.0444 230.021 72.3915 228.336 72.3915 226.263Z" fill="#407BFF"/>
<path opacity="0.8" d="M72.3915 226.263C72.3915 224.153 74.1021 222.442 76.2115 222.442C76.5931 222.442 76.9608 222.5 77.3088 222.604C77.2528 222.221 77.2235 221.83 77.2235 221.431C77.2235 216.962 80.8463 213.34 85.314 213.34C85.8231 213.34 86.3209 213.39 86.8041 213.48C88.0479 211.445 90.283 210.082 92.8429 210.082C94.4415 210.082 95.911 210.618 97.0953 211.512C98.24 207.655 101.799 204.837 106.028 204.837C109.401 204.837 112.348 206.634 113.987 209.316C114.623 209.197 115.28 209.133 115.952 209.133C121.841 209.133 126.616 213.907 126.616 219.797C126.616 220.322 126.576 220.838 126.503 221.343C126.961 221.206 127.446 221.13 127.949 221.13C130.73 221.13 132.984 223.384 132.984 226.166C132.984 228.899 130.805 231.118 128.09 231.194L128.096 231.201H123.5C123.156 235.63 119.461 239.118 114.944 239.118C114.891 239.118 114.84 239.111 114.789 239.111C114.713 244.198 110.571 248.301 105.465 248.301C102.091 248.301 99.1453 246.504 97.5062 243.822C96.8696 243.941 96.2133 244.006 95.5423 244.006C90.5828 244.006 86.426 240.614 85.2331 236.029C82.202 235.634 79.8274 233.161 79.5879 230.084H76.1012L76.1064 230.079C74.0444 230.021 72.3915 228.336 72.3915 226.263Z" fill="white"/>
<path d="M239.379 156.065L239.371 156.055H245.368C245.818 150.276 250.64 145.723 256.534 145.723C256.602 145.723 256.668 145.732 256.736 145.734C256.835 139.094 262.24 133.741 268.903 133.741C273.305 133.741 277.15 136.085 279.289 139.586C280.12 139.431 280.977 139.346 281.852 139.346C289.538 139.346 295.768 145.577 295.768 153.263C295.768 153.948 295.716 154.621 295.621 155.28C295.903 155.195 296.194 155.133 296.491 155.085C297.318 151.52 300.505 148.861 304.322 148.861C307.232 148.861 309.773 150.411 311.188 152.725C311.737 152.623 312.303 152.567 312.882 152.567C317.963 152.567 322.081 156.686 322.081 161.766C322.081 162.219 322.046 162.664 321.984 163.099C322.379 162.981 322.798 162.915 323.231 162.915C325.63 162.915 327.575 164.86 327.575 167.258C327.575 169.617 325.695 171.531 323.352 171.596L323.357 171.602H319.393C319.096 175.422 315.908 178.432 312.012 178.432C311.967 178.432 311.923 178.426 311.878 178.425C311.812 182.814 308.239 186.353 303.834 186.353C300.924 186.353 298.383 184.804 296.969 182.489C296.419 182.592 295.853 182.648 295.275 182.648C291.32 182.648 287.959 180.148 286.659 176.647C284.899 177.799 282.798 178.475 280.536 178.475C280.468 178.475 280.402 178.466 280.334 178.464C280.235 185.103 274.83 190.457 268.167 190.457C263.765 190.457 259.92 188.113 257.781 184.612C256.95 184.768 256.094 184.852 255.218 184.852C247.532 184.852 241.302 178.621 241.302 170.936C241.302 170.251 241.354 169.578 241.449 168.919C240.851 169.098 240.218 169.197 239.562 169.197C235.933 169.197 232.991 166.255 232.991 162.626C232.993 159.06 235.836 156.164 239.379 156.065Z" fill="#407BFF"/>
<path opacity="0.8" d="M239.379 156.065L239.371 156.055H245.368C245.818 150.276 250.64 145.723 256.534 145.723C256.602 145.723 256.668 145.732 256.736 145.734C256.835 139.094 262.24 133.741 268.903 133.741C273.305 133.741 277.15 136.085 279.289 139.586C280.12 139.431 280.977 139.346 281.852 139.346C289.538 139.346 295.768 145.577 295.768 153.263C295.768 153.948 295.716 154.621 295.621 155.28C295.903 155.195 296.194 155.133 296.491 155.085C297.318 151.52 300.505 148.861 304.322 148.861C307.232 148.861 309.773 150.411 311.188 152.725C311.737 152.623 312.303 152.567 312.882 152.567C317.963 152.567 322.081 156.686 322.081 161.766C322.081 162.219 322.046 162.664 321.984 163.099C322.379 162.981 322.798 162.915 323.231 162.915C325.63 162.915 327.575 164.86 327.575 167.258C327.575 169.617 325.695 171.531 323.352 171.596L323.357 171.602H319.393C319.096 175.422 315.908 178.432 312.012 178.432C311.967 178.432 311.923 178.426 311.878 178.425C311.812 182.814 308.239 186.353 303.834 186.353C300.924 186.353 298.383 184.804 296.969 182.489C296.419 182.592 295.853 182.648 295.275 182.648C291.32 182.648 287.959 180.148 286.659 176.647C284.899 177.799 282.798 178.475 280.536 178.475C280.468 178.475 280.402 178.466 280.334 178.464C280.235 185.103 274.83 190.457 268.167 190.457C263.765 190.457 259.92 188.113 257.781 184.612C256.95 184.768 256.094 184.852 255.218 184.852C247.532 184.852 241.302 178.621 241.302 170.936C241.302 170.251 241.354 169.578 241.449 168.919C240.851 169.098 240.218 169.197 239.562 169.197C235.933 169.197 232.991 166.255 232.991 162.626C232.993 159.06 235.836 156.164 239.379 156.065Z" fill="white"/>
<path d="M171.41 24.4497C171.41 22.0415 173.362 20.0897 175.77 20.0897C176.206 20.0897 176.625 20.1551 177.023 20.274C176.959 19.8365 176.925 19.3903 176.925 18.9355C176.925 13.8364 181.059 9.70203 186.159 9.70203C186.74 9.70203 187.308 9.75802 187.859 9.86138C189.278 7.53923 191.829 5.98367 194.75 5.98367C196.575 5.98367 198.252 6.59521 199.603 7.61589C200.909 3.21449 204.971 0 209.797 0C213.646 0 217.009 2.04997 218.88 5.11114C219.607 4.97591 220.355 4.90184 221.122 4.90184C227.843 4.90184 233.292 10.3506 233.292 17.0716C233.292 17.6711 233.247 18.2594 233.162 18.8356C233.685 18.6788 234.238 18.5927 234.813 18.5927C237.986 18.5927 240.559 21.1655 240.559 24.3395C240.559 27.4584 238.073 29.9915 234.975 30.0785L234.981 30.0863H229.737C229.343 35.1406 225.127 39.1208 219.972 39.1208C219.912 39.1208 219.855 39.113 219.794 39.1122C219.707 44.9184 214.981 49.6006 209.154 49.6006C205.304 49.6006 201.943 47.5506 200.072 44.4895C199.345 44.6247 198.596 44.6988 197.831 44.6988C192.171 44.6988 187.427 40.8297 186.066 35.5954C182.607 35.1449 179.898 32.3232 179.625 28.8107H175.645L175.651 28.8046C173.296 28.7383 171.41 26.8167 171.41 24.4497Z" fill="#407BFF"/>
<path opacity="0.8" d="M171.41 24.4497C171.41 22.0415 173.362 20.0897 175.77 20.0897C176.206 20.0897 176.625 20.1551 177.023 20.274C176.959 19.8365 176.925 19.3903 176.925 18.9355C176.925 13.8364 181.059 9.70203 186.159 9.70203C186.74 9.70203 187.308 9.75802 187.859 9.86138C189.278 7.53923 191.829 5.98367 194.75 5.98367C196.575 5.98367 198.252 6.59521 199.603 7.61589C200.909 3.21449 204.971 0 209.797 0C213.646 0 217.009 2.04997 218.88 5.11114C219.607 4.97591 220.355 4.90184 221.122 4.90184C227.843 4.90184 233.292 10.3506 233.292 17.0716C233.292 17.6711 233.247 18.2594 233.162 18.8356C233.685 18.6788 234.238 18.5927 234.813 18.5927C237.986 18.5927 240.559 21.1655 240.559 24.3395C240.559 27.4584 238.073 29.9915 234.975 30.0785L234.981 30.0863H229.737C229.343 35.1406 225.127 39.1208 219.972 39.1208C219.912 39.1208 219.855 39.113 219.794 39.1122C219.707 44.9184 214.981 49.6006 209.154 49.6006C205.304 49.6006 201.943 47.5506 200.072 44.4895C199.345 44.6247 198.596 44.6988 197.831 44.6988C192.171 44.6988 187.427 40.8297 186.066 35.5954C182.607 35.1449 179.898 32.3232 179.625 28.8107H175.645L175.651 28.8046C173.296 28.7383 171.41 26.8167 171.41 24.4497Z" fill="white"/>
<path d="M59.7514 141.461C59.7514 143.562 58.0477 145.265 55.9469 145.265C55.5671 145.265 55.2001 145.207 54.8548 145.104C54.9099 145.486 54.94 145.875 54.94 146.272C54.94 150.722 51.3328 154.33 46.8831 154.33C46.3758 154.33 45.8806 154.281 45.3991 154.191C44.1605 156.218 41.9339 157.575 39.3853 157.575C35.5274 157.575 32.3981 154.475 32.3404 150.631C32.3008 150.632 32.2629 150.637 32.2233 150.637C30.9201 150.637 29.7082 150.251 28.6927 149.589C28.0079 149.992 27.2129 150.227 26.3611 150.227C26.0708 150.227 25.7874 150.199 25.5118 150.148C24.8029 151.307 23.529 152.084 22.0708 152.084C19.8632 152.084 18.0725 150.311 18.0398 148.111C18.0174 148.112 17.995 148.114 17.9726 148.114C16.0199 148.114 14.4222 146.606 14.2732 144.692H12.2861L12.2886 144.689C11.1147 144.656 10.1732 143.697 10.1732 142.515C10.1732 141.313 11.1482 140.338 12.3507 140.338C12.5677 140.338 12.7779 140.371 12.976 140.431C12.9441 140.213 12.9269 139.99 12.9269 139.762C12.9269 137.216 14.9906 135.151 17.5376 135.151C17.8279 135.151 18.1112 135.18 18.3869 135.231C19.0957 134.071 20.3697 133.294 21.8279 133.294C22.5178 133.294 23.1673 133.468 23.7349 133.773C24.7151 130.428 27.8012 127.983 31.4627 127.983C31.9701 127.983 32.4653 128.032 32.9468 128.121C34.1854 126.095 36.4111 124.737 38.9606 124.737C42.8185 124.737 45.9477 127.837 46.0054 131.681C46.0451 131.68 46.083 131.675 46.1226 131.675C49.5352 131.675 52.3268 134.311 52.5877 137.657H56.0606L56.0555 137.662C58.1054 137.718 59.7514 139.395 59.7514 141.461Z" fill="#407BFF"/>
<path opacity="0.8" d="M59.7514 141.461C59.7514 143.562 58.0477 145.265 55.9469 145.265C55.5671 145.265 55.2001 145.207 54.8548 145.104C54.9099 145.486 54.94 145.875 54.94 146.272C54.94 150.722 51.3328 154.33 46.8831 154.33C46.3758 154.33 45.8806 154.281 45.3991 154.191C44.1605 156.218 41.9339 157.575 39.3853 157.575C35.5274 157.575 32.3981 154.475 32.3404 150.631C32.3008 150.632 32.2629 150.637 32.2233 150.637C30.9201 150.637 29.7082 150.251 28.6927 149.589C28.0079 149.992 27.2129 150.227 26.3611 150.227C26.0708 150.227 25.7874 150.199 25.5118 150.148C24.8029 151.307 23.529 152.084 22.0708 152.084C19.8632 152.084 18.0725 150.311 18.0398 148.111C18.0174 148.112 17.995 148.114 17.9726 148.114C16.0199 148.114 14.4222 146.606 14.2732 144.692H12.2861L12.2886 144.689C11.1147 144.656 10.1732 143.697 10.1732 142.515C10.1732 141.313 11.1482 140.338 12.3507 140.338C12.5677 140.338 12.7779 140.371 12.976 140.431C12.9441 140.213 12.9269 139.99 12.9269 139.762C12.9269 137.216 14.9906 135.151 17.5376 135.151C17.8279 135.151 18.1112 135.18 18.3869 135.231C19.0957 134.071 20.3697 133.294 21.8279 133.294C22.5178 133.294 23.1673 133.468 23.7349 133.773C24.7151 130.428 27.8012 127.983 31.4627 127.983C31.9701 127.983 32.4653 128.032 32.9468 128.121C34.1854 126.095 36.4111 124.737 38.9606 124.737C42.8185 124.737 45.9477 127.837 46.0054 131.681C46.0451 131.68 46.083 131.675 46.1226 131.675C49.5352 131.675 52.3268 134.311 52.5877 137.657H56.0606L56.0555 137.662C58.1054 137.718 59.7514 139.395 59.7514 141.461Z" fill="white"/>
<path d="M312.544 67.3759C311.468 67.4379 310.38 67.4155 309.334 67.1899C310.399 67.2726 311.455 67.1503 312.489 66.9487C312.834 66.8789 313.176 66.7868 313.519 66.6998C315.019 64.7514 316.25 62.5378 317.137 60.5568C316.243 60.9504 315.316 61.2768 314.36 61.431C315.382 61.1201 316.321 60.6214 317.211 60.0572C317.282 60.0115 317.348 59.959 317.418 59.9125C317.451 59.8332 317.486 59.7531 317.518 59.6748C316.925 59.9736 316.325 60.2562 315.697 60.4732C314.956 60.7316 314.19 60.9332 313.424 60.9702C314.15 60.7204 314.793 60.3294 315.4 59.8996C316.007 59.4706 316.563 58.9719 317.099 58.4603C317.559 58.0202 317.994 57.5533 318.416 57.0761C319.673 52.1648 317.343 49.176 317.343 49.176C317.132 49.1433 316.93 49.12 316.731 49.1011C316.494 50.1527 316.226 51.1932 315.891 52.2156C315.371 53.7833 314.723 55.3164 313.85 56.7101C314.597 55.2458 315.101 53.6834 315.477 52.0985C315.622 51.4758 315.745 50.847 315.855 50.2156C315.445 51.5085 314.867 52.7419 314.149 53.872C314.766 52.6325 315.218 51.3233 315.482 49.9813C315.544 49.679 315.596 49.3741 315.642 49.0692C311.909 49.2096 310.53 52.1915 308.422 56.0296C308.391 56.4146 308.349 56.7996 308.325 57.1847C308.232 58.9831 308.228 60.7936 308.484 62.5878C308.087 60.8186 307.945 58.9952 307.895 57.1786C307.893 57.1106 307.896 57.0425 307.896 56.9745C307.748 57.2338 307.598 57.4956 307.442 57.76C307.429 58.9874 307.476 60.2165 307.651 61.4379C307.412 60.3716 307.272 59.2846 307.182 58.1924C306.463 59.3793 305.634 60.6059 304.619 61.8264C304.598 62.4103 304.593 62.9969 304.619 63.5835C304.669 64.9349 304.853 66.2855 305.162 67.6145C304.715 66.326 304.386 64.9866 304.19 63.624C304.133 63.2458 304.089 62.866 304.052 62.4853C303.881 62.6774 303.708 62.8694 303.526 63.0607C303.104 63.5051 302.794 63.9874 302.561 64.4853C302.542 64.816 302.53 65.1485 302.526 65.481C302.504 66.8264 302.614 68.1821 302.854 69.5318C302.519 68.7084 302.238 67.854 302.004 66.9832C301.941 69.4242 303.031 71.6188 303.031 71.6188C306.878 72.8652 310.334 70.574 313.019 67.3268C312.86 67.3415 312.703 67.3656 312.544 67.3759Z" fill="#407BFF"/>
<path d="M299.061 74.3174C300.877 73.1908 302.598 71.7911 304.202 70.3165C305.804 68.8281 307.324 67.2407 308.706 65.537C310.077 63.8272 311.394 62.0606 312.525 60.1743C313.703 58.3156 314.695 56.3466 315.637 54.3552C314.76 56.375 313.831 58.381 312.71 60.2846C311.635 62.2157 310.37 64.0348 309.043 65.804C307.705 67.568 306.223 69.2218 304.648 70.7842C303.057 72.3398 301.394 73.7963 299.504 75.0556C299.306 75.1873 299.039 75.1339 298.907 74.9358C298.775 74.7377 298.828 74.4707 299.026 74.3389C299.03 74.3363 299.033 74.3346 299.037 74.332L299.061 74.3174Z" fill="#407BFF"/>
<path opacity="0.3" d="M299.061 74.3174C300.877 73.1908 302.598 71.7911 304.202 70.3165C305.804 68.8281 307.324 67.2407 308.706 65.537C310.077 63.8272 311.394 62.0606 312.525 60.1743C313.703 58.3156 314.695 56.3466 315.637 54.3552C314.76 56.375 313.831 58.381 312.71 60.2846C311.635 62.2157 310.37 64.0348 309.043 65.804C307.705 67.568 306.223 69.2218 304.648 70.7842C303.057 72.3398 301.394 73.7963 299.504 75.0556C299.306 75.1873 299.039 75.1339 298.907 74.9358C298.775 74.7377 298.828 74.4707 299.026 74.3389C299.03 74.3363 299.033 74.3346 299.037 74.332L299.061 74.3174Z" fill="black"/>
<path d="M319.035 154.998C318.084 155.139 317.133 155.245 316.177 155.286C314.709 155.338 313.23 155.259 311.799 154.922C313.25 155.117 314.71 155.05 316.148 154.856C316.712 154.777 317.275 154.675 317.835 154.561C316.63 154.623 315.424 154.506 314.26 154.222C315.484 154.373 316.716 154.345 317.917 154.129C318.189 154.084 318.459 154.026 318.727 153.964C317.463 150.509 314.55 150.244 310.699 149.592C310.368 149.696 310.034 149.789 309.705 149.901C308.176 150.435 306.663 151.055 305.244 151.915C306.599 150.931 308.077 150.169 309.579 149.494C309.635 149.469 309.693 149.45 309.749 149.425C309.487 149.376 309.223 149.326 308.954 149.27C307.926 149.681 306.915 150.151 305.948 150.736C306.765 150.142 307.629 149.636 308.513 149.175C307.301 148.909 306.023 148.555 304.693 148.024C304.199 148.205 303.709 148.404 303.226 148.63C302.113 149.144 301.043 149.782 300.028 150.531C300.966 149.667 301.983 148.896 303.061 148.242C303.359 148.059 303.662 147.885 303.969 147.719C303.756 147.625 303.542 147.528 303.327 147.424C302.827 147.181 302.329 147.057 301.841 147.01C301.56 147.107 301.279 147.21 301 147.322C299.87 147.766 298.772 148.337 297.719 149.029C298.304 148.43 298.93 147.872 299.585 147.351C297.528 148.135 296.031 149.916 296.031 149.916C296.172 153.955 299.145 156.408 302.681 157.807C302.621 157.663 302.553 157.525 302.495 157.379C302.113 156.391 301.797 155.361 301.665 154.302C301.922 155.331 302.349 156.28 302.834 157.18C302.999 157.48 303.181 157.769 303.359 158.061C305.446 158.796 307.671 159.186 309.598 159.335C308.994 158.632 308.437 157.875 308.014 157.031C308.588 157.883 309.293 158.593 310.037 159.232C310.096 159.282 310.161 159.326 310.221 159.376C310.297 159.38 310.375 159.384 310.45 159.388C310.018 158.935 309.598 158.468 309.224 157.953C308.781 157.348 308.377 156.699 308.111 155.992C308.542 156.587 309.067 157.057 309.611 157.477C310.156 157.898 310.743 158.249 311.335 158.575C311.843 158.855 312.367 159.102 312.895 159.333C317.38 158.817 319.159 155.598 319.159 155.598C319.123 155.388 319.08 155.191 319.035 154.998Z" fill="#407BFF"/>
<path d="M292.562 147.122C294.061 148.438 295.757 149.57 297.48 150.566C299.215 151.555 301.007 152.433 302.853 153.142C304.702 153.838 306.58 154.464 308.502 154.875C310.415 155.338 312.363 155.589 314.315 155.786C312.36 155.661 310.4 155.481 308.467 155.086C306.525 154.745 304.618 154.185 302.734 153.551C300.851 152.904 299.014 152.084 297.227 151.145C295.44 150.19 293.714 149.133 292.082 147.793C291.912 147.653 291.874 147.383 291.999 147.191C292.124 146.999 292.363 146.957 292.535 147.097C292.537 147.1 292.541 147.102 292.543 147.104L292.562 147.122Z" fill="#407BFF"/>
<path opacity="0.3" d="M292.562 147.122C294.061 148.438 295.757 149.57 297.48 150.566C299.215 151.555 301.007 152.433 302.853 153.142C304.702 153.838 306.58 154.464 308.502 154.875C310.415 155.338 312.363 155.589 314.315 155.786C312.36 155.661 310.4 155.481 308.467 155.086C306.525 154.745 304.618 154.185 302.734 153.551C300.851 152.904 299.014 152.084 297.227 151.145C295.44 150.19 293.714 149.133 292.082 147.793C291.912 147.653 291.874 147.383 291.999 147.191C292.124 146.999 292.363 146.957 292.535 147.097C292.537 147.1 292.541 147.102 292.543 147.104L292.562 147.122Z" fill="black"/>
<path d="M213.484 235.49C212.776 236.14 212.049 236.762 211.28 237.331C210.094 238.199 208.826 238.963 207.452 239.487C208.763 238.834 209.933 237.96 211.015 236.992C211.438 236.609 211.846 236.21 212.246 235.8C211.283 236.528 210.218 237.108 209.096 237.527C210.194 236.965 211.197 236.25 212.071 235.397C212.27 235.207 212.461 235.008 212.648 234.806C209.663 232.655 207.104 234.071 203.551 235.693C203.335 235.965 203.11 236.229 202.901 236.506C201.935 237.807 201.031 239.169 200.34 240.677C200.908 239.102 201.704 237.641 202.569 236.241C202.601 236.188 202.638 236.139 202.67 236.087C202.427 236.194 202.179 236.3 201.925 236.405C201.305 237.323 200.731 238.279 200.26 239.305C200.603 238.356 201.035 237.452 201.507 236.574C200.356 237.035 199.098 237.459 197.7 237.766C197.392 238.193 197.097 238.633 196.826 239.091C196.194 240.14 195.665 241.27 195.246 242.459C195.538 241.217 195.947 240.008 196.471 238.863C196.615 238.543 196.769 238.23 196.929 237.92C196.7 237.962 196.47 238.001 196.233 238.036C195.682 238.116 195.201 238.292 194.771 238.528C194.592 238.765 194.418 239.009 194.25 239.258C193.563 240.259 192.976 241.348 192.493 242.511C192.64 241.687 192.845 240.873 193.096 240.075C191.833 241.878 191.594 244.192 191.594 244.192C193.978 247.457 197.816 247.819 201.526 246.992C201.395 246.907 201.261 246.83 201.132 246.742C200.26 246.139 199.422 245.464 198.718 244.662C199.509 245.368 200.395 245.914 201.302 246.387C201.607 246.543 201.919 246.681 202.23 246.822C204.37 246.259 206.431 245.333 208.109 244.375C207.215 244.131 206.328 243.818 205.505 243.356C206.458 243.739 207.439 243.931 208.414 244.043C208.491 244.051 208.57 244.051 208.647 244.058C208.713 244.018 208.78 243.979 208.843 243.94C208.231 243.807 207.622 243.657 207.023 243.441C206.317 243.189 205.619 242.878 205.001 242.442C205.692 242.692 206.389 242.787 207.076 242.829C207.763 242.872 208.445 242.832 209.118 242.77C209.696 242.717 210.268 242.627 210.834 242.522C214.256 239.577 213.923 235.915 213.923 235.915C213.776 235.764 213.63 235.624 213.484 235.49Z" fill="#407BFF"/>
<path d="M187.153 243.828C189.132 244.076 191.171 244.061 193.157 243.918C195.147 243.764 197.123 243.484 199.049 243.035C200.97 242.574 202.876 242.037 204.697 241.298C206.541 240.609 208.294 239.723 210.02 238.79C208.331 239.784 206.608 240.735 204.787 241.493C202.988 242.3 201.096 242.907 199.179 243.441C197.258 243.963 195.278 244.314 193.271 244.54C191.257 244.753 189.233 244.845 187.132 244.653C186.911 244.633 186.73 244.431 186.724 244.202C186.72 243.973 186.895 243.804 187.115 243.824C187.118 243.824 187.122 243.825 187.126 243.825L187.153 243.828Z" fill="#407BFF"/>
<path opacity="0.3" d="M187.153 243.828C189.132 244.076 191.171 244.061 193.157 243.918C195.147 243.764 197.123 243.484 199.049 243.035C200.97 242.574 202.876 242.037 204.697 241.298C206.541 240.609 208.294 239.723 210.02 238.79C208.331 239.784 206.608 240.735 204.787 241.493C202.988 242.3 201.096 242.907 199.179 243.441C197.258 243.963 195.278 244.314 193.271 244.54C191.257 244.753 189.233 244.845 187.132 244.653C186.911 244.633 186.73 244.431 186.724 244.202C186.72 243.973 186.895 243.804 187.115 243.824C187.118 243.824 187.122 243.825 187.126 243.825L187.153 243.828Z" fill="black"/>
<path d="M248.552 198.47C248.969 197.999 249.402 197.546 249.865 197.125C250.58 196.482 251.355 195.9 252.215 195.469C251.404 195.98 250.701 196.627 250.06 197.328C249.81 197.605 249.571 197.893 249.337 198.185C249.916 197.648 250.571 197.199 251.273 196.853C250.596 197.291 249.989 197.823 249.478 198.436C249.36 198.573 249.249 198.715 249.141 198.859C251.226 200.062 252.8 198.971 255.006 197.681C255.128 197.489 255.257 197.302 255.374 197.108C255.918 196.197 256.416 195.25 256.767 194.222C256.501 195.285 256.079 196.289 255.609 197.258C255.591 197.294 255.571 197.328 255.553 197.365C255.705 197.278 255.859 197.193 256.018 197.108C256.36 196.469 256.671 195.809 256.91 195.11C256.75 195.75 256.528 196.367 256.279 196.97C256.998 196.595 257.789 196.235 258.679 195.942C258.851 195.644 259.013 195.338 259.16 195.022C259.503 194.296 259.771 193.526 259.966 192.725C259.858 193.552 259.672 194.367 259.406 195.147C259.334 195.365 259.254 195.579 259.17 195.791C259.317 195.749 259.465 195.707 259.616 195.669C259.969 195.581 260.272 195.434 260.536 195.253C260.637 195.085 260.734 194.916 260.827 194.743C261.208 194.046 261.519 193.297 261.757 192.508C261.715 193.054 261.635 193.598 261.525 194.135C262.228 192.877 262.23 191.354 262.23 191.354C260.462 189.386 257.939 189.405 255.578 190.188C255.669 190.234 255.762 190.276 255.852 190.325C256.459 190.66 257.05 191.044 257.561 191.52C257 191.112 256.387 190.815 255.765 190.567C255.557 190.485 255.344 190.416 255.132 190.345C253.776 190.853 252.496 191.592 251.466 192.327C252.064 192.426 252.662 192.572 253.229 192.818C252.583 192.631 251.931 192.571 251.289 192.563C251.238 192.563 251.187 192.568 251.136 192.568C251.096 192.598 251.055 192.628 251.016 192.658C251.423 192.704 251.83 192.762 252.234 192.862C252.71 192.98 253.186 193.136 253.616 193.379C253.15 193.262 252.689 193.247 252.24 193.265C251.789 193.282 251.348 193.352 250.913 193.438C250.54 193.511 250.174 193.607 249.813 193.712C247.779 195.856 248.238 198.219 248.238 198.219C248.343 198.311 248.447 198.392 248.552 198.47Z" fill="#407BFF"/>
<path opacity="0.5" d="M248.552 198.47C248.969 197.999 249.402 197.546 249.865 197.125C250.58 196.482 251.355 195.9 252.215 195.469C251.404 195.98 250.701 196.627 250.06 197.328C249.81 197.605 249.571 197.893 249.337 198.185C249.916 197.648 250.571 197.199 251.273 196.853C250.596 197.291 249.989 197.823 249.478 198.436C249.36 198.573 249.249 198.715 249.141 198.859C251.226 200.062 252.8 198.971 255.006 197.681C255.128 197.489 255.257 197.302 255.374 197.108C255.918 196.197 256.416 195.25 256.767 194.222C256.501 195.285 256.079 196.289 255.609 197.258C255.591 197.294 255.571 197.328 255.553 197.365C255.705 197.278 255.859 197.193 256.018 197.108C256.36 196.469 256.671 195.809 256.91 195.11C256.75 195.75 256.528 196.367 256.279 196.97C256.998 196.595 257.789 196.235 258.679 195.942C258.851 195.644 259.013 195.338 259.16 195.022C259.503 194.296 259.771 193.526 259.966 192.725C259.858 193.552 259.672 194.367 259.406 195.147C259.334 195.365 259.254 195.579 259.17 195.791C259.317 195.749 259.465 195.707 259.616 195.669C259.969 195.581 260.272 195.434 260.536 195.253C260.637 195.085 260.734 194.916 260.827 194.743C261.208 194.046 261.519 193.297 261.757 192.508C261.715 193.054 261.635 193.598 261.525 194.135C262.228 192.877 262.23 191.354 262.23 191.354C260.462 189.386 257.939 189.405 255.578 190.188C255.669 190.234 255.762 190.276 255.852 190.325C256.459 190.66 257.05 191.044 257.561 191.52C257 191.112 256.387 190.815 255.765 190.567C255.557 190.485 255.344 190.416 255.132 190.345C253.776 190.853 252.496 191.592 251.466 192.327C252.064 192.426 252.662 192.572 253.229 192.818C252.583 192.631 251.931 192.571 251.289 192.563C251.238 192.563 251.187 192.568 251.136 192.568C251.096 192.598 251.055 192.628 251.016 192.658C251.423 192.704 251.83 192.762 252.234 192.862C252.71 192.98 253.186 193.136 253.616 193.379C253.15 193.262 252.689 193.247 252.24 193.265C251.789 193.282 251.348 193.352 250.913 193.438C250.54 193.511 250.174 193.607 249.813 193.712C247.779 195.856 248.238 198.219 248.238 198.219C248.343 198.311 248.447 198.392 248.552 198.47Z" fill="white"/>
<path d="M265.144 191.3C263.839 191.269 262.513 191.414 261.23 191.638C259.944 191.87 258.676 192.183 257.451 192.603C256.23 193.03 255.025 193.506 253.888 194.107C252.733 194.678 251.651 195.371 250.589 196.091C251.623 195.333 252.682 194.6 253.818 193.986C254.936 193.341 256.128 192.821 257.34 192.347C258.557 191.88 259.822 191.52 261.114 191.241C262.412 190.97 263.723 190.775 265.105 190.762C265.249 190.761 265.381 190.88 265.399 191.029C265.417 191.178 265.315 191.3 265.17 191.302C265.168 191.302 265.165 191.302 265.162 191.302L265.144 191.3Z" fill="#407BFF"/>
<path d="M126.253 218.769C126.768 218.407 127.268 218.03 127.74 217.618C128.461 216.981 129.127 216.278 129.654 215.473C129.053 216.22 128.33 216.845 127.56 217.401C127.256 217.617 126.943 217.823 126.625 218.02C127.225 217.507 127.746 216.907 128.17 216.249C127.657 216.872 127.059 217.414 126.392 217.852C126.242 217.953 126.088 218.047 125.933 218.138C124.977 215.929 126.24 214.491 127.775 212.446C127.979 212.347 128.179 212.241 128.386 212.146C129.352 211.71 130.35 211.324 131.412 211.093C130.325 211.236 129.28 211.54 128.263 211.896C128.225 211.91 128.188 211.926 128.151 211.94C128.253 211.8 128.356 211.656 128.458 211.508C129.132 211.241 129.823 211.008 130.546 210.851C129.891 210.937 129.253 211.086 128.625 211.266C129.081 210.594 129.529 209.85 129.921 208.999C130.237 208.862 130.56 208.736 130.89 208.626C131.65 208.369 132.446 208.19 133.265 208.089C132.43 208.101 131.6 208.192 130.794 208.368C130.57 208.415 130.348 208.47 130.127 208.529C130.186 208.389 130.244 208.247 130.299 208.1C130.427 207.759 130.607 207.477 130.818 207.235C130.995 207.154 131.176 207.076 131.358 207.004C132.095 206.706 132.873 206.483 133.685 206.337C133.137 206.315 132.588 206.333 132.043 206.381C133.373 205.826 134.885 205.999 134.885 205.999C136.638 207.98 136.331 210.484 135.281 212.741C135.245 212.645 135.215 212.549 135.177 212.453C134.914 211.812 134.6 211.181 134.186 210.619C134.527 211.223 134.752 211.866 134.927 212.512C134.983 212.728 135.028 212.948 135.075 213.166C134.415 214.455 133.534 215.643 132.686 216.581C132.656 215.975 132.579 215.365 132.4 214.774C132.512 215.437 132.497 216.091 132.431 216.73C132.425 216.781 132.415 216.831 132.409 216.881C132.374 216.918 132.34 216.955 132.306 216.991C132.306 216.581 132.296 216.17 132.242 215.757C132.18 215.271 132.079 214.78 131.887 214.325C131.95 214.801 131.913 215.26 131.843 215.706C131.774 216.151 131.654 216.582 131.519 217.003C131.404 217.365 131.266 217.718 131.12 218.065C128.757 219.839 126.462 219.112 126.462 219.112C126.387 218.994 126.318 218.881 126.253 218.769Z" fill="#407BFF"/>
<path opacity="0.3" d="M126.253 218.769C126.768 218.407 127.268 218.03 127.74 217.618C128.461 216.981 129.127 216.278 129.654 215.473C129.053 216.22 128.33 216.845 127.56 217.401C127.256 217.617 126.943 217.823 126.625 218.02C127.225 217.507 127.746 216.907 128.17 216.249C127.657 216.872 127.059 217.414 126.392 217.852C126.242 217.953 126.088 218.047 125.933 218.138C124.977 215.929 126.24 214.491 127.775 212.446C127.979 212.347 128.179 212.241 128.386 212.146C129.352 211.71 130.35 211.324 131.412 211.093C130.325 211.236 129.28 211.54 128.263 211.896C128.225 211.91 128.188 211.926 128.151 211.94C128.253 211.8 128.356 211.656 128.458 211.508C129.132 211.241 129.823 211.008 130.546 210.851C129.891 210.937 129.253 211.086 128.625 211.266C129.081 210.594 129.529 209.85 129.921 208.999C130.237 208.862 130.56 208.736 130.89 208.626C131.65 208.369 132.446 208.19 133.265 208.089C132.43 208.101 131.6 208.192 130.794 208.368C130.57 208.415 130.348 208.47 130.127 208.529C130.186 208.389 130.244 208.247 130.299 208.1C130.427 207.759 130.607 207.477 130.818 207.235C130.995 207.154 131.176 207.076 131.358 207.004C132.095 206.706 132.873 206.483 133.685 206.337C133.137 206.315 132.588 206.333 132.043 206.381C133.373 205.826 134.885 205.999 134.885 205.999C136.638 207.98 136.331 210.484 135.281 212.741C135.245 212.645 135.215 212.549 135.177 212.453C134.914 211.812 134.6 211.181 134.186 210.619C134.527 211.223 134.752 211.866 134.927 212.512C134.983 212.728 135.028 212.948 135.075 213.166C134.415 214.455 133.534 215.643 132.686 216.581C132.656 215.975 132.579 215.365 132.4 214.774C132.512 215.437 132.497 216.091 132.431 216.73C132.425 216.781 132.415 216.831 132.409 216.881C132.374 216.918 132.34 216.955 132.306 216.991C132.306 216.581 132.296 216.17 132.242 215.757C132.18 215.271 132.079 214.78 131.887 214.325C131.95 214.801 131.913 215.26 131.843 215.706C131.774 216.151 131.654 216.582 131.519 217.003C131.404 217.365 131.266 217.718 131.12 218.065C128.757 219.839 126.462 219.112 126.462 219.112C126.387 218.994 126.318 218.881 126.253 218.769Z" fill="white"/>
<path d="M135.276 203.106C135.157 204.406 134.862 205.707 134.492 206.956C134.114 208.207 133.659 209.431 133.101 210.6C132.536 211.763 131.927 212.906 131.199 213.967C130.499 215.049 129.687 216.045 128.849 217.018C129.721 216.077 130.571 215.11 131.311 214.051C132.079 213.015 132.733 211.89 133.342 210.74C133.945 209.585 134.448 208.369 134.873 207.117C135.292 205.859 135.635 204.579 135.807 203.208C135.825 203.064 135.722 202.919 135.575 202.884C135.43 202.849 135.297 202.936 135.279 203.08C135.279 203.083 135.278 203.085 135.278 203.087L135.276 203.106Z" fill="#407BFF"/>
<path d="M31.8373 142.546C32.4661 142.575 33.0914 142.582 33.7168 142.545C34.6763 142.483 35.6341 142.334 36.5436 142.02C35.6117 142.243 34.6565 142.295 33.7073 142.263C33.3352 142.249 32.9614 142.22 32.5893 142.182C33.3783 142.144 34.156 141.988 34.8951 141.726C34.1078 141.905 33.3042 141.968 32.5075 141.907C32.3274 141.895 32.1483 141.876 31.9691 141.853C32.5643 139.52 34.4429 139.155 36.908 138.477C37.1302 138.523 37.3542 138.561 37.5755 138.612C38.6065 138.859 39.6324 139.164 40.6134 139.63C39.6668 139.078 38.6539 138.679 37.6315 138.339C37.5927 138.326 37.554 138.318 37.5161 138.305C37.6832 138.256 37.852 138.206 38.0234 138.151C38.7202 138.352 39.4093 138.591 40.0768 138.909C39.5058 138.576 38.9097 138.303 38.3034 138.061C39.0751 137.809 39.8839 137.493 40.7151 137.06C41.0493 137.145 41.3817 137.243 41.7099 137.359C42.4679 137.62 43.2078 137.965 43.9175 138.386C43.25 137.884 42.5368 137.449 41.7917 137.095C41.5859 136.995 41.3766 136.903 41.1656 136.814C41.2982 136.738 41.4308 136.661 41.5635 136.58C41.8736 136.388 42.1897 136.275 42.5041 136.212C42.6936 136.256 42.8839 136.305 43.0725 136.359C43.8374 136.574 44.5902 136.873 45.3206 137.254C44.9003 136.903 44.4558 136.58 43.995 136.285C45.3861 136.66 46.4782 137.721 46.4782 137.721C46.6522 140.361 44.8779 142.154 42.6677 143.297C42.6979 143.2 42.7332 143.104 42.7607 143.006C42.9451 142.338 43.082 141.646 43.0984 140.948C42.9985 141.635 42.7831 142.281 42.5265 142.899C42.4386 143.105 42.3404 143.306 42.2431 143.507C40.9321 144.123 39.5092 144.524 38.2646 144.748C38.6108 144.25 38.9244 143.72 39.1431 143.143C38.8262 143.735 38.4136 144.244 37.9717 144.709C37.9364 144.746 37.8968 144.779 37.8606 144.815C37.8115 144.822 37.7607 144.831 37.7125 144.838C37.964 144.514 38.2069 144.183 38.4162 143.823C38.6642 143.4 38.8847 142.951 39.0114 142.473C38.7693 142.889 38.4592 143.229 38.1319 143.538C37.8055 143.848 37.4455 144.115 37.082 144.367C36.7693 144.583 36.4446 144.778 36.1164 144.963C33.1621 144.922 31.7917 142.944 31.7917 142.944C31.8063 142.806 31.821 142.674 31.8373 142.546Z" fill="#407BFF"/>
<path opacity="0.5" d="M31.8373 142.546C32.4661 142.575 33.0914 142.582 33.7168 142.545C34.6763 142.483 35.6341 142.334 36.5436 142.02C35.6117 142.243 34.6565 142.295 33.7073 142.263C33.3352 142.249 32.9614 142.22 32.5893 142.182C33.3783 142.144 34.156 141.988 34.8951 141.726C34.1078 141.905 33.3042 141.968 32.5075 141.907C32.3274 141.895 32.1483 141.876 31.9691 141.853C32.5643 139.52 34.4429 139.155 36.908 138.477C37.1302 138.523 37.3542 138.561 37.5755 138.612C38.6065 138.859 39.6324 139.164 40.6134 139.63C39.6668 139.078 38.6539 138.679 37.6315 138.339C37.5927 138.326 37.554 138.318 37.5161 138.305C37.6832 138.256 37.852 138.206 38.0234 138.151C38.7202 138.352 39.4093 138.591 40.0768 138.909C39.5058 138.576 38.9097 138.303 38.3034 138.061C39.0751 137.809 39.8839 137.493 40.7151 137.06C41.0493 137.145 41.3817 137.243 41.7099 137.359C42.4679 137.62 43.2078 137.965 43.9175 138.386C43.25 137.884 42.5368 137.449 41.7917 137.095C41.5859 136.995 41.3766 136.903 41.1656 136.814C41.2982 136.738 41.4308 136.661 41.5635 136.58C41.8736 136.388 42.1897 136.275 42.5041 136.212C42.6936 136.256 42.8839 136.305 43.0725 136.359C43.8374 136.574 44.5902 136.873 45.3206 137.254C44.9003 136.903 44.4558 136.58 43.995 136.285C45.3861 136.66 46.4782 137.721 46.4782 137.721C46.6522 140.361 44.8779 142.154 42.6677 143.297C42.6979 143.2 42.7332 143.104 42.7607 143.006C42.9451 142.338 43.082 141.646 43.0984 140.948C42.9985 141.635 42.7831 142.281 42.5265 142.899C42.4386 143.105 42.3404 143.306 42.2431 143.507C40.9321 144.123 39.5092 144.524 38.2646 144.748C38.6108 144.25 38.9244 143.72 39.1431 143.143C38.8262 143.735 38.4136 144.244 37.9717 144.709C37.9364 144.746 37.8968 144.779 37.8606 144.815C37.8115 144.822 37.7607 144.831 37.7125 144.838C37.964 144.514 38.2069 144.183 38.4162 143.823C38.6642 143.4 38.8847 142.951 39.0114 142.473C38.7693 142.889 38.4592 143.229 38.1319 143.538C37.8055 143.848 37.4455 144.115 37.082 144.367C36.7693 144.583 36.4446 144.778 36.1164 144.963C33.1621 144.922 31.7917 142.944 31.7917 142.944C31.8063 142.806 31.821 142.674 31.8373 142.546Z" fill="white"/>
<path d="M48.5558 135.673C47.6669 136.63 46.6367 137.478 45.5799 138.24C44.5161 138.999 43.4067 139.689 42.2508 140.272C41.0932 140.847 39.9114 141.379 38.6866 141.773C37.4713 142.201 36.2198 142.492 34.9614 142.749C36.2267 142.538 37.4902 142.293 38.7237 141.908C39.9657 141.557 41.1707 141.067 42.3559 140.53C43.5394 139.985 44.6806 139.331 45.7831 138.601C46.8839 137.861 47.9382 137.058 48.9123 136.079C49.014 135.977 49.0209 135.798 48.927 135.682C48.8331 135.565 48.6746 135.554 48.5721 135.656C48.5704 135.658 48.5687 135.66 48.5669 135.661L48.5558 135.673Z" fill="#407BFF"/>
<path d="M327.309 118.065C326.816 117.675 326.312 117.303 325.783 116.968C324.967 116.458 324.103 116.02 323.182 115.743C324.069 116.107 324.874 116.622 325.626 117.201C325.92 117.43 326.206 117.672 326.487 117.921C325.823 117.492 325.101 117.163 324.349 116.944C325.092 117.258 325.781 117.677 326.392 118.192C326.531 118.306 326.665 118.427 326.797 118.55C324.951 120.096 323.213 119.294 320.816 118.405C320.663 118.238 320.504 118.076 320.354 117.906C319.661 117.103 319.006 116.256 318.483 115.306C318.929 116.306 319.518 117.222 320.15 118.095C320.174 118.127 320.2 118.157 320.224 118.19C320.06 118.132 319.893 118.075 319.723 118.018C319.274 117.449 318.854 116.852 318.498 116.204C318.767 116.807 319.091 117.376 319.442 117.927C318.668 117.682 317.827 117.465 316.899 117.331C316.678 117.067 316.465 116.794 316.266 116.508C315.803 115.853 315.405 115.141 315.074 114.385C315.323 115.182 315.648 115.952 316.046 116.674C316.154 116.876 316.27 117.073 316.39 117.268C316.238 117.251 316.086 117.237 315.93 117.225C315.567 117.2 315.244 117.107 314.952 116.974C314.824 116.828 314.699 116.677 314.577 116.523C314.082 115.902 313.646 115.219 313.275 114.483C313.411 115.014 313.583 115.536 313.785 116.045C312.874 114.928 312.608 113.429 312.608 113.429C314.008 111.184 316.496 110.765 318.958 111.128C318.877 111.19 318.792 111.246 318.712 111.31C318.172 111.745 317.657 112.225 317.236 112.783C317.718 112.284 318.27 111.885 318.84 111.534C319.031 111.417 319.229 111.312 319.425 111.206C320.848 111.471 322.238 111.977 323.378 112.523C322.806 112.724 322.243 112.971 321.727 113.312C322.331 113.016 322.962 112.845 323.593 112.724C323.643 112.715 323.693 112.711 323.744 112.703C323.789 112.725 323.835 112.747 323.878 112.771C323.485 112.886 323.094 113.014 322.714 113.183C322.265 113.382 321.823 113.618 321.442 113.932C321.881 113.735 322.332 113.641 322.778 113.58C323.224 113.519 323.672 113.512 324.114 113.521C324.493 113.529 324.871 113.56 325.245 113.601C327.62 115.36 327.576 117.766 327.576 117.766C327.487 117.872 327.398 117.97 327.309 118.065Z" fill="#407BFF"/>
<path opacity="0.3" d="M327.309 118.065C326.816 117.675 326.312 117.303 325.783 116.968C324.967 116.458 324.103 116.02 323.182 115.743C324.069 116.107 324.874 116.622 325.626 117.201C325.92 117.43 326.206 117.672 326.487 117.921C325.823 117.492 325.101 117.163 324.349 116.944C325.092 117.258 325.781 117.677 326.392 118.192C326.531 118.306 326.665 118.427 326.797 118.55C324.951 120.096 323.213 119.294 320.816 118.405C320.663 118.238 320.504 118.076 320.354 117.906C319.661 117.103 319.006 116.256 318.483 115.306C318.929 116.306 319.518 117.222 320.15 118.095C320.174 118.127 320.2 118.157 320.224 118.19C320.06 118.132 319.893 118.075 319.723 118.018C319.274 117.449 318.854 116.852 318.498 116.204C318.767 116.807 319.091 117.376 319.442 117.927C318.668 117.682 317.827 117.465 316.899 117.331C316.678 117.067 316.465 116.794 316.266 116.508C315.803 115.853 315.405 115.141 315.074 114.385C315.323 115.182 315.648 115.952 316.046 116.674C316.154 116.876 316.27 117.073 316.39 117.268C316.238 117.251 316.086 117.237 315.93 117.225C315.567 117.2 315.244 117.107 314.952 116.974C314.824 116.828 314.699 116.677 314.577 116.523C314.082 115.902 313.646 115.219 313.275 114.483C313.411 115.014 313.583 115.536 313.785 116.045C312.874 114.928 312.608 113.429 312.608 113.429C314.008 111.184 316.496 110.765 318.958 111.128C318.877 111.19 318.792 111.246 318.712 111.31C318.172 111.745 317.657 112.225 317.236 112.783C317.718 112.284 318.27 111.885 318.84 111.534C319.031 111.417 319.229 111.312 319.425 111.206C320.848 111.471 322.238 111.977 323.378 112.523C322.806 112.724 322.243 112.971 321.727 113.312C322.331 113.016 322.962 112.845 323.593 112.724C323.643 112.715 323.693 112.711 323.744 112.703C323.789 112.725 323.835 112.747 323.878 112.771C323.485 112.886 323.094 113.014 322.714 113.183C322.265 113.382 321.823 113.618 321.442 113.932C321.881 113.735 322.332 113.641 322.778 113.58C323.224 113.519 323.672 113.512 324.114 113.521C324.493 113.529 324.871 113.56 325.245 113.601C327.62 115.36 327.576 117.766 327.576 117.766C327.487 117.872 327.398 117.97 327.309 118.065Z" fill="white"/>
<path d="M309.724 113.878C311.004 113.622 312.336 113.535 313.639 113.533C314.946 113.539 316.249 113.627 317.527 113.828C318.803 114.038 320.072 114.297 321.296 114.692C322.532 115.055 323.719 115.549 324.891 116.076C323.741 115.508 322.571 114.969 321.345 114.561C320.133 114.12 318.869 113.815 317.592 113.558C316.313 113.309 315.004 113.174 313.684 113.122C312.358 113.08 311.033 113.115 309.671 113.342C309.528 113.365 309.418 113.506 309.427 113.655C309.435 113.805 309.557 113.907 309.7 113.883C309.703 113.883 309.705 113.883 309.707 113.883L309.724 113.878Z" fill="#407BFF"/>
<path d="M48.9511 176.581C49.7582 176.731 50.5566 176.909 51.3404 177.142C52.542 177.507 53.7143 177.983 54.7772 178.653C53.6583 178.092 52.461 177.741 51.2448 177.497C50.7668 177.404 50.2836 177.33 49.7987 177.267C50.7892 177.552 51.7324 177.982 52.5937 178.534C51.6462 178.072 50.6436 177.752 49.6126 177.593C49.3801 177.555 49.1466 177.525 48.9124 177.501C48.9735 180.644 51.2535 181.668 54.1837 183.265C54.48 183.272 54.7763 183.29 55.0726 183.291C56.4567 183.285 57.8521 183.203 59.2371 182.904C57.8693 183.322 56.4628 183.527 55.0623 183.656C55.0097 183.66 54.9572 183.661 54.9046 183.665C55.1027 183.777 55.3026 183.892 55.5041 184.01C56.4499 183.964 57.3973 183.865 58.3405 183.661C57.5162 183.913 56.6773 184.082 55.834 184.209C56.7393 184.761 57.6738 185.402 58.6015 186.201C59.0511 186.191 59.5033 186.167 59.9546 186.118C60.996 186.012 62.039 185.794 63.0666 185.47C62.0683 185.909 61.0321 186.249 59.9796 186.478C59.6876 186.544 59.3948 186.599 59.1002 186.648C59.2457 186.783 59.3913 186.921 59.5369 187.065C59.8736 187.4 60.2414 187.639 60.6221 187.812C60.8771 187.813 61.1321 187.807 61.3887 187.794C62.4249 187.749 63.4714 187.594 64.5136 187.327C63.8745 187.648 63.2139 187.926 62.5395 188.164C64.4189 188.102 66.1235 187.079 66.1235 187.079C67.1321 183.775 65.4111 180.967 62.9426 178.855C62.9512 178.987 62.9676 179.119 62.9744 179.252C63.0089 180.158 62.9779 181.077 62.7901 181.969C62.8676 181.066 62.7858 180.181 62.6446 179.319C62.5946 179.03 62.5291 178.746 62.4654 178.461C60.983 177.287 59.2931 176.353 57.778 175.698C58.07 176.433 58.3103 177.201 58.4171 178C58.1906 177.153 57.8177 176.383 57.3947 175.66C57.3603 175.602 57.3207 175.549 57.2853 175.492C57.2251 175.468 57.1639 175.442 57.1036 175.419C57.3267 175.905 57.5369 176.399 57.6962 176.918C57.8857 177.531 58.0313 178.168 58.0502 178.812C57.8667 178.212 57.5739 177.687 57.2509 177.196C56.9279 176.704 56.5506 176.258 56.1639 175.83C55.8306 175.462 55.4757 175.117 55.1139 174.784C51.3456 173.955 49.014 176.061 49.014 176.061C48.9882 176.241 48.9683 176.413 48.9511 176.581Z" fill="#407BFF"/>
<path d="M68.1536 190.301C67.3087 188.821 66.2518 187.435 65.1364 186.151C64.0098 184.869 62.8065 183.662 61.5111 182.576C60.2113 181.5 58.8668 180.472 57.4275 179.606C56.0097 178.7 54.5059 177.956 52.9839 177.255C54.5291 177.9 56.0623 178.589 57.5153 179.445C58.9899 180.261 60.375 181.243 61.7221 182.279C63.064 183.325 64.3199 184.498 65.5033 185.753C66.6816 187.021 67.7824 188.356 68.729 189.892C68.8281 190.053 68.7833 190.28 68.6291 190.401C68.4749 190.521 68.2699 190.489 68.17 190.327C68.1683 190.325 68.1666 190.322 68.1648 190.319L68.1536 190.301Z" fill="#407BFF"/>
<path opacity="0.3" d="M68.1536 190.301C67.3087 188.821 66.2518 187.435 65.1364 186.151C64.0098 184.869 62.8065 183.662 61.5111 182.576C60.2113 181.5 58.8668 180.472 57.4275 179.606C56.0097 178.7 54.5059 177.956 52.9839 177.255C54.5291 177.9 56.0623 178.589 57.5153 179.445C58.9899 180.261 60.375 181.243 61.7221 182.279C63.064 183.325 64.3199 184.498 65.5033 185.753C66.6816 187.021 67.7824 188.356 68.729 189.892C68.8281 190.053 68.7833 190.28 68.6291 190.401C68.4749 190.521 68.2699 190.489 68.17 190.327C68.1683 190.325 68.1666 190.322 68.1648 190.319L68.1536 190.301Z" fill="black"/>
<path d="M25.3412 81.4346C26.0225 82.1124 26.7236 82.7627 27.4695 83.3631C28.6194 84.2778 29.8563 85.0926 31.2077 85.6706C29.9243 84.9652 28.7899 84.0453 27.7477 83.0349C27.3412 82.6361 26.9484 82.2201 26.566 81.7946C27.4988 82.5603 28.5393 83.1831 29.6435 83.6456C28.5686 83.0401 27.5944 82.2864 26.7563 81.3992C26.5651 81.2011 26.3817 80.9944 26.2034 80.7851C29.2714 78.7558 31.7727 80.2726 35.2577 82.0358C35.4618 82.3166 35.6763 82.5896 35.8735 82.8747C36.7874 84.2124 37.635 85.6103 38.2663 87.1452C37.7607 85.5491 37.0243 84.0573 36.2172 82.6241C36.1862 82.5707 36.1517 82.5198 36.1216 82.4664C36.3602 82.5827 36.6039 82.699 36.8529 82.8144C37.436 83.7567 37.9709 84.7343 38.3998 85.7791C38.0949 84.817 37.7004 83.8962 37.2629 82.9996C38.3955 83.5061 39.635 83.9798 41.02 84.3433C41.3103 84.7826 41.5867 85.2339 41.8391 85.7025C42.4291 86.7765 42.9115 87.9256 43.2827 89.1314C43.0415 87.879 42.6815 86.6542 42.2026 85.488C42.0717 85.1633 41.9304 84.8437 41.7823 84.5285C42.0097 84.5793 42.2388 84.6284 42.4739 84.6723C43.0209 84.7748 43.4955 84.9695 43.9149 85.2218C44.0846 85.4665 44.2491 85.7171 44.4067 85.9721C45.0519 86.9996 45.5962 88.1116 46.0321 89.2934C45.9175 88.4639 45.7452 87.643 45.5273 86.8351C46.7168 88.687 46.8633 91.0091 46.8633 91.0091C44.3508 94.1754 40.5006 94.3829 36.8262 93.4079C36.9605 93.3278 37.0975 93.2563 37.231 93.1736C38.1259 92.606 38.9907 91.9643 39.7263 91.1917C38.908 91.8661 38.001 92.376 37.076 92.8119C36.765 92.9557 36.4472 93.0806 36.1311 93.209C34.0156 92.5604 31.9941 91.5526 30.3558 90.5285C31.2585 90.3209 32.1569 90.0427 32.9984 89.6146C32.0311 89.96 31.0423 90.1116 30.0647 90.184C29.9863 90.1891 29.9088 90.1857 29.8304 90.19C29.7667 90.1478 29.7012 90.1056 29.6384 90.0642C30.2551 89.9566 30.8701 89.83 31.4764 89.6387C32.1922 89.4148 32.9028 89.1323 33.5367 88.7214C32.8365 88.9436 32.1362 89.01 31.448 89.0246C30.7598 89.041 30.0794 88.9738 29.4092 88.8851C28.8339 88.8084 28.2663 88.6956 27.7047 88.5681C24.4032 85.488 24.8838 81.842 24.8838 81.842C25.038 81.6964 25.1896 81.5629 25.3412 81.4346Z" fill="#407BFF"/>
<path d="M51.3163 90.8214C49.3293 90.9902 47.2922 90.8928 45.3137 90.6706C43.3309 90.4372 41.368 90.0789 39.461 89.5526C37.56 89.0151 35.6772 88.4027 33.8873 87.5914C32.0725 86.8282 30.3567 85.873 28.6694 84.8721C30.3171 85.9324 32.0001 86.9514 33.79 87.7826C35.5549 88.6611 37.4214 89.3433 39.3146 89.9531C41.2138 90.5517 43.1776 90.9824 45.1733 91.2882C47.1777 91.581 49.1957 91.755 51.3043 91.6465C51.5248 91.6353 51.7151 91.4406 51.7289 91.2115C51.7427 90.9824 51.5747 90.8067 51.3542 90.8179C51.3508 90.8179 51.3465 90.8188 51.3431 90.8188L51.3163 90.8214Z" fill="#407BFF"/>
<path opacity="0.3" d="M51.3163 90.8214C49.3293 90.9902 47.2922 90.8928 45.3137 90.6706C43.3309 90.4372 41.368 90.0789 39.461 89.5526C37.56 89.0151 35.6772 88.4027 33.8873 87.5914C32.0725 86.8282 30.3567 85.873 28.6694 84.8721C30.3171 85.9324 32.0001 86.9514 33.79 87.7826C35.5549 88.6611 37.4214 89.3433 39.3146 89.9531C41.2138 90.5517 43.1776 90.9824 45.1733 91.2882C47.1777 91.581 49.1957 91.755 51.3043 91.6465C51.5248 91.6353 51.7151 91.4406 51.7289 91.2115C51.7427 90.9824 51.5747 90.8067 51.3542 90.8179C51.3508 90.8179 51.3465 90.8188 51.3431 90.8188L51.3163 90.8214Z" fill="black"/>
<path d="M163.748 169.382C160.975 173.487 157.952 172.781 155.859 171.353C154.17 170.218 153.034 168.595 153.034 168.523C153.016 168.523 151.242 173.065 145.661 173.187C140.036 173.26 138.856 167.922 138.89 167.939C138.865 167.906 137.409 174.379 129.786 173.065C122.396 171.686 123.447 168.231 123.516 168.028C122.026 169.179 114.334 169.155 109.467 165.383C104.627 161.612 107.271 157.808 107.254 157.816C97.5638 158.756 93.4294 153.809 91.0952 150.491C88.718 147.133 92.4734 143.929 92.4647 143.929C81.9393 141.918 76.7627 134.756 77.2364 131.447C77.6499 128.259 80.3372 129.046 80.587 129.111C73.7825 126.491 65.5481 117.488 67.1416 113.992C68.5973 110.723 74.7299 114.317 75.264 114.592C59.5188 105.346 58.5886 97.5345 59.5619 93.966C60.5266 90.4053 72.5508 98.395 72.8264 98.395C56.3061 83.8842 58.692 74.7756 60.6472 73.251C62.5852 71.661 74.6094 83.5112 74.7299 83.3165C59.2346 66.0158 68.1407 51.1484 70.3027 57.71C72.6111 63.9719 79.8204 72.0908 79.9065 72.0908C68.425 52.2104 80.6903 44.6919 80.966 51.8056C80.6214 59.2923 98.184 88.2813 98.9506 87.7619C98.1065 88.208 122.801 119.452 143.094 130.263C145.109 131.505 146.987 132.843 148.718 134.27C149.614 134.992 150.467 135.738 151.276 136.501C154.179 139.219 156.625 142.139 158.606 145.107C164.954 154.58 166.651 164.483 163.748 169.382Z" fill="#FC814A"/>
<path d="M109.708 98.2692C109.106 98.6465 92.3079 73.7015 90.1236 65.6438C87.1658 57.7178 84.8075 78.121 97.2434 91.1529C97.1762 91.2959 85.6921 81.6456 81.9487 76.7601C78.0409 71.8488 81.7885 88.5965 95.2563 97.6405C95.2106 97.873 80.1546 89.3898 78.1692 87.047C76.1683 84.5439 75.7316 95.9609 98.0375 107.893C97.997 108.33 76.8152 98.2977 77.1261 102.076C77.357 106.306 89.6929 114.683 103.005 117.399C103.058 117.626 86.065 115.03 85.3105 118.824C84.699 123.291 108.546 126.41 108.433 125.986C108.525 126.165 91.867 127.603 93.5198 131.556C95.3829 135.955 115.212 135.133 115.091 134.878C115.174 134.972 101.348 140.176 103.341 144.335C105.458 148.636 116.413 147.427 123.591 140.573C123.63 140.573 114.672 149.791 119.251 154.91C123.931 159.983 132.034 147.784 132.028 147.808C132 147.772 127.368 158.7 132.629 161.861C137.767 164.888 140.105 149.412 140.237 149.476C140.029 149.415 141.496 165.236 147.344 164.512C152.867 163.687 151.699 154.034 151.785 154.064C151.493 153.934 152.65 171.27 165.954 164.39C177.564 157.323 149.99 133.581 138.386 124.634C124.927 116.525 109.432 98.4053 109.708 98.2692Z" fill="#FC814A"/>
<path opacity="0.2" d="M109.708 98.2692C109.106 98.6465 92.3079 73.7015 90.1236 65.6438C87.1658 57.7178 84.8075 78.121 97.2434 91.1529C97.1762 91.2959 85.6921 81.6456 81.9487 76.7601C78.0409 71.8488 81.7885 88.5965 95.2563 97.6405C95.2106 97.873 80.1546 89.3898 78.1692 87.047C76.1683 84.5439 75.7316 95.9609 98.0375 107.893C97.997 108.33 76.8152 98.2977 77.1261 102.076C77.357 106.306 89.6929 114.683 103.005 117.399C103.058 117.626 86.065 115.03 85.3105 118.824C84.699 123.291 108.546 126.41 108.433 125.986C108.525 126.165 91.867 127.603 93.5198 131.556C95.3829 135.955 115.212 135.133 115.091 134.878C115.174 134.972 101.348 140.176 103.341 144.335C105.458 148.636 116.413 147.427 123.591 140.573C123.63 140.573 114.672 149.791 119.251 154.91C123.931 159.983 132.034 147.784 132.028 147.808C132 147.772 127.368 158.7 132.629 161.861C137.767 164.888 140.105 149.412 140.237 149.476C140.029 149.415 141.496 165.236 147.344 164.512C152.867 163.687 151.699 154.034 151.785 154.064C151.493 153.934 152.65 171.27 165.954 164.39C177.564 157.323 149.99 133.581 138.386 124.634C124.927 116.525 109.432 98.4053 109.708 98.2692Z" fill="white"/>
<path d="M156.804 132.068C156.745 132.081 148.069 125.395 140.27 121.02C131.974 117.138 112.985 99.9066 107.123 92.1237C100.9 84.55 102.574 97.1306 112.083 103.268C112.086 103.272 108.051 101.9 104.487 99.7878C100.941 97.5242 101.842 104.219 114.502 110.113C114.501 110.158 107.504 107.774 105.708 108.725C103.873 109.943 119.863 116.174 119.879 115.934C119.894 116.039 109.119 113.228 109.37 116.244C109.69 119.535 123.709 121.016 123.662 120.86C123.699 120.952 112.892 120.485 113.773 123.913C114.783 127.571 128.478 125.804 128.402 125.676C128.44 125.725 119.664 128.047 120.653 131.098C121.751 134.256 131.933 129.373 131.88 129.319C131.897 129.325 126.758 133.913 128.71 136.983C130.718 140.069 137.547 134.008 137.523 133.997C137.551 133.998 132.994 138.39 136.25 142.977C139.55 147.512 141.978 135.903 142.044 135.943C142.003 135.9 139.84 145.589 145.661 148.722C151.338 151.721 148.464 139.687 148.601 139.723C148.475 139.686 151.293 150.933 157.319 151.857C162.773 152.658 156.328 132.017 156.804 132.068Z" fill="#FC814A"/>
<path opacity="0.4" d="M156.804 132.068C156.745 132.081 148.069 125.395 140.27 121.02C131.974 117.138 112.985 99.9066 107.123 92.1237C100.9 84.55 102.574 97.1306 112.083 103.268C112.086 103.272 108.051 101.9 104.487 99.7878C100.941 97.5242 101.842 104.219 114.502 110.113C114.501 110.158 107.504 107.774 105.708 108.725C103.873 109.943 119.863 116.174 119.879 115.934C119.894 116.039 109.119 113.228 109.37 116.244C109.69 119.535 123.709 121.016 123.662 120.86C123.699 120.952 112.892 120.485 113.773 123.913C114.783 127.571 128.478 125.804 128.402 125.676C128.44 125.725 119.664 128.047 120.653 131.098C121.751 134.256 131.933 129.373 131.88 129.319C131.897 129.325 126.758 133.913 128.71 136.983C130.718 140.069 137.547 134.008 137.523 133.997C137.551 133.998 132.994 138.39 136.25 142.977C139.55 147.512 141.978 135.903 142.044 135.943C142.003 135.9 139.84 145.589 145.661 148.722C151.338 151.721 148.464 139.687 148.601 139.723C148.475 139.686 151.293 150.933 157.319 151.857C162.773 152.658 156.328 132.017 156.804 132.068Z" fill="white"/>
<path opacity="0.2" d="M163.748 169.382C160.975 173.487 157.952 172.781 155.859 171.353C152.568 165.205 151.819 156.721 151.819 156.721C151.819 156.721 149.58 163.453 147.366 151.878C145.454 141.853 148.003 135.729 148.718 134.269C148.83 134.042 148.899 133.929 148.899 133.929C148.899 133.929 149.812 134.878 151.276 136.5C153.094 138.511 155.764 141.561 158.606 145.106C164.954 154.58 166.651 164.483 163.748 169.382Z" fill="black"/>
<path d="M213.429 184.213C213.429 184.213 220.244 186.471 220.358 189.084C220.471 191.696 216.383 194.422 212.407 193.741C212.407 193.741 214.905 197.035 210.476 199.079C206.046 201.124 201.73 199.079 201.73 199.079C201.73 199.079 203.547 202.941 197.527 204.532C191.507 206.122 185.488 201.011 185.488 201.011C185.488 201.011 187.911 203.85 182.554 203.85C177.196 203.85 175.606 199.234 175.606 199.234C175.606 199.234 174.335 201.913 172.426 200.396C167.853 196.761 171.745 180.225 171.745 180.225L204.684 178.294L213.429 184.213Z" fill="#FC814A"/>
<path opacity="0.15" d="M213.429 184.213C213.429 184.213 220.244 186.471 220.358 189.084C220.471 191.696 216.383 194.422 212.407 193.741C212.407 193.741 214.905 197.035 210.476 199.079C206.046 201.124 201.73 199.079 201.73 199.079C201.73 199.079 203.547 202.941 197.527 204.532C191.507 206.122 185.488 201.011 185.488 201.011C185.488 201.011 187.911 203.85 182.554 203.85C177.196 203.85 175.606 199.234 175.606 199.234C175.606 199.234 174.335 201.913 172.426 200.396C167.853 196.761 171.745 180.225 171.745 180.225L204.684 178.294L213.429 184.213Z" fill="black"/>
<path d="M200.764 173.807C200.764 173.807 220.259 181.733 217.601 186.699C215.473 190.674 207.579 187.607 207.579 187.607C207.579 187.607 212.939 191.923 210.645 194.252C207.22 197.73 199.401 194.252 199.401 194.252C199.401 194.252 202.127 198.17 199.401 200.385C196.675 202.601 190.03 198.371 190.03 198.371C190.03 198.371 191.345 202.259 186.087 202.771C180.83 203.282 176.235 194.827 176.235 194.827C176.235 194.827 175.655 197.808 173.163 198.371C168.019 199.533 166.419 194.487 169.212 187.607C172.006 180.728 176.609 173.807 176.609 173.807H200.764Z" fill="#FC814A"/>
<path d="M172.183 167.988C172.183 167.988 168.447 181.643 165.132 187.095C161.816 192.547 170.703 191.028 175.258 184.213C175.258 184.213 176.483 195.67 180.44 196.429C184.874 197.279 183.329 186.699 183.329 186.699C183.329 186.699 186.855 198.371 193.083 198.371C199.31 198.371 191.28 185.348 191.28 185.348C191.28 185.348 197.65 193.911 203.328 191.866C209.007 189.821 196.277 178.294 196.277 178.294C196.277 178.294 208.098 185.273 212.187 182.209C216.276 179.145 202.646 173.643 196.285 167.989C189.926 162.334 172.183 167.988 172.183 167.988Z" fill="#FC814A"/>
<path opacity="0.2" d="M172.183 167.988C172.183 167.988 168.447 181.643 165.132 187.095C161.816 192.547 170.703 191.028 175.258 184.213C175.258 184.213 176.483 195.67 180.44 196.429C184.874 197.279 183.329 186.699 183.329 186.699C183.329 186.699 186.855 198.371 193.083 198.371C199.31 198.371 191.28 185.348 191.28 185.348C191.28 185.348 197.65 193.911 203.328 191.866C209.007 189.821 196.277 178.294 196.277 178.294C196.277 178.294 208.098 185.273 212.187 182.209C216.276 179.145 202.646 173.643 196.285 167.989C189.926 162.334 172.183 167.988 172.183 167.988Z" fill="white"/>
<path d="M151.967 137.025C151.967 137.025 150.257 149.22 152.914 156.254C155.57 163.288 157.061 161.167 157.061 161.167C157.061 161.167 160.231 175.546 164.2 175.76C164.2 175.76 168.666 183.283 177.097 184.744C185.526 186.206 191.762 177.712 191.762 177.712C191.762 177.712 192.135 178.376 193.455 177.457C194.774 176.539 194.129 163.437 194.129 163.437C194.129 163.437 194.392 165.3 195.619 162.511C196.846 159.721 189.039 136.252 175.612 130.331C162.187 124.411 151.967 137.025 151.967 137.025Z" fill="#FC814A"/>
<path opacity="0.3" d="M195.623 162.512C194.391 165.302 194.133 163.433 194.133 163.433C194.133 163.433 194.77 176.543 193.452 177.456C192.134 178.377 191.764 177.714 191.764 177.714C191.764 177.714 185.528 186.207 177.096 184.743C168.93 183.33 164.486 176.224 164.219 175.785C164.21 175.767 164.202 175.759 164.202 175.759C160.231 175.544 157.061 161.168 157.061 161.168C157.061 161.168 155.571 163.287 152.918 156.258C150.257 149.221 151.971 137.025 151.971 137.025C151.971 137.025 162.186 124.415 175.614 130.332C183.004 133.588 188.698 142.167 192.109 149.686C194.899 155.828 196.174 161.254 195.623 162.512Z" fill="white"/>
<path opacity="0.2" d="M195.623 162.512C194.391 165.302 194.133 163.433 194.133 163.433C194.133 163.433 194.77 176.543 193.452 177.456C192.134 178.377 191.764 177.714 191.764 177.714C191.764 177.714 185.528 186.207 177.096 184.743C168.93 183.33 164.486 176.224 164.219 175.785C164.425 176.017 166.329 178.205 167.767 179.17C169.283 180.195 171.049 180.686 171.747 180.221C172.436 179.764 172.255 177.895 172.255 177.895C172.255 177.895 173.039 179.084 174.994 180.022C176.958 180.961 177.569 179.592 177.569 179.592C177.569 179.592 178.405 180.35 179.938 180.393C181.471 180.445 182.91 177.43 182.91 177.43C182.91 177.43 184.193 178.575 185.304 178.748C186.407 178.911 187.432 175.923 187.432 175.923C187.432 175.923 187.862 176.698 189.137 176.276C190.412 175.845 191.092 169.54 191.092 169.54C191.092 169.54 190.343 170.651 188.672 168.438C187.01 166.224 185.39 161.194 185.39 161.194C185.39 161.194 180.799 160.108 180.283 154.002C179.998 150.625 186.364 149.773 192.109 149.686C194.899 155.828 196.174 161.254 195.623 162.512Z" fill="black"/>
<path d="M187.433 175.923C187.433 175.923 187.883 181.729 187.624 182.984C187.364 184.239 184.544 186.927 184.544 186.927C184.544 186.927 185.716 191.536 185.882 193.34C186.048 195.145 185.283 197.451 185.283 197.451C185.283 197.451 184.755 193.32 183.538 190.291C183.538 190.291 183.413 194.24 183.472 195.337C183.531 196.434 184.012 198.28 183.911 199.753C183.911 199.753 183.111 198.165 182.092 196.053C181.073 193.941 181.452 190.322 181.452 190.322C181.452 190.322 180.717 193.895 180.868 194.905C181.02 195.916 181.566 197.075 181.566 197.075C181.566 197.075 179.839 195.071 179.673 193.266C179.506 191.462 180.723 187.198 181.245 185.985C181.767 184.771 184.544 182.391 184.544 182.391L182.909 177.426C182.909 177.426 183.599 178.01 184.136 177.682C184.674 177.355 185.163 175.137 185.163 175.137C185.163 175.137 185.715 176.964 186.115 176.929C186.516 176.895 187.433 175.923 187.433 175.923Z" fill="#263238"/>
<path d="M172.253 177.895C172.253 177.895 173.925 181.473 174.119 182.74C174.313 184.007 172.604 187.507 172.604 187.507C172.604 187.507 175.305 191.421 176.089 193.055C176.873 194.69 176.958 197.117 176.958 197.117C176.958 197.117 175.025 193.428 172.831 191.012C172.831 191.012 174.088 194.757 174.525 195.766C174.961 196.774 176.054 198.337 176.473 199.754C176.473 199.754 175.171 198.543 173.481 196.917C171.791 195.292 170.887 191.768 170.887 191.768C170.887 191.768 171.44 195.373 171.934 196.268C172.427 197.163 173.342 198.06 173.342 198.06C173.342 198.06 171.026 196.781 170.243 195.147C169.459 193.512 169.117 189.092 169.184 187.773C169.251 186.453 171.028 183.257 171.028 183.257L167.768 179.171C167.768 179.171 169.01 180.029 169.4 179.535C169.789 179.041 169.191 177.407 169.191 177.407C169.191 177.407 170.923 179.338 171.906 179.436C172.305 179.476 172.253 177.895 172.253 177.895Z" fill="#263238"/>
<path d="M218.479 86.3441C219.763 86.96 234.22 42.045 230.384 30.6823C227.401 19.442 253.835 21.8339 241.732 59.8952C241.826 60.0649 251.323 43.7487 252.868 31.9485C253.924 19.0923 278.743 35.1776 256.302 72.0641C256.646 72.5611 274.529 46.8254 279.191 46.8022C283.838 46.685 293.196 58.9762 267.18 89.749C267.373 90.2063 287.357 71.1882 291.125 74.6188C294.843 77.9944 296.996 89.6112 271.336 109.243C271.383 109.343 281.492 101.362 286.363 104.043C291.398 106.835 281.063 120.971 270.562 126.134C270.566 126.152 275.086 124.017 277.962 127.026C280.859 129.87 276.524 138.801 260.625 143.231C260.603 143.267 268.788 145.155 267.374 148.607C266.01 151.86 263.249 157.096 248.472 157.415C248.446 157.425 254.956 160.26 251.067 163.812C247.304 167.282 237.433 167.62 234.72 166.643C234.706 166.61 239.166 169.568 231.078 170.724C223.351 171.712 216.87 166.244 216.893 166.268C216.893 166.245 219.632 170.611 213.692 170.24C207.946 169.832 202.846 165.81 202.858 165.819C202.918 165.765 203.548 172.381 193.602 165.601C183.744 158.602 175.867 140.074 187.31 131.746C202.296 122.238 219.53 86.7093 218.479 86.3441Z" fill="#FC814A"/>
<path d="M210.322 103.284C211.08 103.679 224.794 73.0392 225.635 62.0357C227.446 50.1536 238.2 77.27 224.416 95.1228C224.541 95.3915 238.376 82.1314 242.832 74.5999C247.741 66.487 247.201 89.8153 229.916 102.398C230.036 102.927 250.431 90.2503 252.995 86.3484C255.578 82.0323 260.327 97.3571 230.242 113.804C230.41 114.79 259.602 99.9454 260.706 103.723C262.053 108.506 245.539 120.896 227.634 123.796C227.605 124.361 251.441 120.359 254.55 123.648C257.558 128.628 224.496 133.247 224.564 132.228C224.453 132.747 248.565 133.624 248.271 137.175C247.735 141.881 220.589 141.01 220.715 140.367C220.58 140.722 241.527 145.865 241.291 149.353C240.931 153.19 225.889 152.192 213.673 144.913C213.544 145.084 229.439 154.062 227.116 158.096C224.572 162.283 208.212 150.69 208.365 150.528C208.28 150.594 219.826 160.722 216.18 162.82C212.473 164.926 200.72 150.955 200.812 150.905C200.789 150.894 208.868 164.62 202.905 163.192C197.144 161.729 192.435 153.246 192.439 153.267C192.457 153.13 201.946 168.413 186.416 160.241C172.541 151.805 181.922 133.406 189.612 127.497C199.571 121.165 210.607 103.395 210.322 103.284Z" fill="#FC814A"/>
<path opacity="0.2" d="M210.322 103.284C211.08 103.679 224.794 73.0392 225.635 62.0357C227.446 50.1536 238.2 77.27 224.416 95.1228C224.541 95.3915 238.376 82.1314 242.832 74.5999C247.741 66.487 247.201 89.8153 229.916 102.398C230.036 102.927 250.431 90.2503 252.995 86.3484C255.578 82.0323 260.327 97.3571 230.242 113.804C230.41 114.79 259.602 99.9454 260.706 103.723C262.053 108.506 245.539 120.896 227.634 123.796C227.605 124.361 251.441 120.359 254.55 123.648C257.558 128.628 224.496 133.247 224.564 132.228C224.453 132.747 248.565 133.624 248.271 137.175C247.735 141.881 220.589 141.01 220.715 140.367C220.58 140.722 241.527 145.865 241.291 149.353C240.931 153.19 225.889 152.192 213.673 144.913C213.544 145.084 229.439 154.062 227.116 158.096C224.572 162.283 208.212 150.69 208.365 150.528C208.28 150.594 219.826 160.722 216.18 162.82C212.473 164.926 200.72 150.955 200.812 150.905C200.789 150.894 208.868 164.62 202.905 163.192C197.144 161.729 192.435 153.246 192.439 153.267C192.457 153.13 201.946 168.413 186.416 160.241C172.541 151.805 181.922 133.406 189.612 127.497C199.571 121.165 210.607 103.395 210.322 103.284Z" fill="white"/>
<path d="M177.308 148.13C174.243 140.876 177.036 132.168 183.822 128.524C183.88 128.493 183.939 128.461 183.998 128.43C190.824 125.589 206.2 108.497 211.303 99.5673C217.221 90.0341 219.772 105.761 209.231 112.655C209.228 112.665 214.132 111.352 218.291 108.926C222.539 106.146 223.944 114.297 209.106 120.302C209.115 120.383 217.514 118.197 220.517 119.262C223.63 120.817 204.99 126.63 204.937 126.207C204.936 126.405 217.775 124.284 218.927 127.478C220.019 131.174 202.625 131.41 202.669 131.083C202.632 131.281 216.159 131.961 216.783 135.412C217.254 139.334 199.349 135.857 199.446 135.543C199.391 135.679 211.228 139.282 211.669 142.223C211.939 145.45 197.228 139.021 197.328 138.832C197.284 138.889 205.67 144.384 205.119 147.18C204.457 150.066 193.482 142.839 193.556 142.745C193.512 142.788 200.888 147.986 199.942 152.038C198.885 156.028 189.738 143.985 189.805 143.946C189.753 143.959 197.413 154.036 193.323 156.136C189.333 158.087 185.226 146.581 185.224 146.602C185.233 146.574 188.88 157.27 183.864 157.13C181.645 157.028 179.25 152.729 177.308 148.13Z" fill="#FC814A"/>
<path opacity="0.4" d="M177.308 148.13C174.243 140.876 177.036 132.168 183.822 128.524C183.88 128.493 183.939 128.461 183.998 128.43C190.824 125.589 206.2 108.497 211.303 99.5673C217.221 90.0341 219.772 105.761 209.231 112.655C209.228 112.665 214.132 111.352 218.291 108.926C222.539 106.146 223.944 114.297 209.106 120.302C209.115 120.383 217.514 118.197 220.517 119.262C223.63 120.817 204.99 126.63 204.937 126.207C204.936 126.405 217.775 124.284 218.927 127.478C220.019 131.174 202.625 131.41 202.669 131.083C202.632 131.281 216.159 131.961 216.783 135.412C217.254 139.334 199.349 135.857 199.446 135.543C199.391 135.679 211.228 139.282 211.669 142.223C211.939 145.45 197.228 139.021 197.328 138.832C197.284 138.889 205.67 144.384 205.119 147.18C204.457 150.066 193.482 142.839 193.556 142.745C193.512 142.788 200.888 147.986 199.942 152.038C198.885 156.028 189.738 143.985 189.805 143.946C189.753 143.959 197.413 154.036 193.323 156.136C189.333 158.087 185.226 146.581 185.224 146.602C185.233 146.574 188.88 157.27 183.864 157.13C181.645 157.028 179.25 152.729 177.308 148.13Z" fill="white"/>
<path d="M169.968 127.188C169.968 127.188 169.608 119.173 162.491 117.79C155.374 116.406 151.884 119.686 150.8 124.12C149.716 128.554 150.114 131.726 150.114 131.726C150.114 131.726 148.654 133.362 148.435 135.794C148.215 138.226 149.649 136.873 149.649 136.873C149.649 136.873 148.555 139.968 149.597 142.741C150.637 145.516 150.708 142.841 150.708 142.841C150.708 142.841 150.711 148.487 151.637 149.597C152.563 150.707 152.762 148.501 152.762 148.501C152.762 148.501 154.735 153.184 156.206 154.571C157.677 155.959 157.187 153.804 157.187 153.804C157.187 153.804 161.223 157.818 162.543 157.994C163.864 158.17 163.106 155.821 163.106 155.821C163.106 155.821 166.146 158.775 167.802 158.127C169.457 157.478 169.636 156.126 169.636 156.126C169.636 156.126 170.09 157.421 171.179 156.721C172.269 156.021 173.264 153.83 173.264 153.83C173.264 153.83 174.154 154.709 175.033 153.819C175.911 152.929 176.208 150.903 176.208 150.903C176.208 150.903 176.085 151.634 177.165 151.046C178.244 150.46 178.668 145.138 178.668 145.138C178.668 145.138 179.357 145.086 179.86 143.307C180.363 141.527 178.216 138.14 178.216 138.14C178.216 138.14 179.281 138.35 179.223 137.09C179.165 135.831 176.824 132.711 176.824 132.711C176.824 132.711 177.783 132.826 176.815 131.555C175.847 130.285 169.968 127.188 169.968 127.188Z" fill="#FC814A"/>
<path opacity="0.5" d="M179.86 143.304C179.361 145.087 178.672 145.139 178.672 145.139C178.672 145.139 178.25 150.462 177.164 151.047C176.088 151.633 176.208 150.901 176.208 150.901C176.208 150.901 175.916 152.925 175.037 153.821C174.158 154.708 173.263 153.829 173.263 153.829C173.263 153.829 172.272 156.017 171.178 156.723C170.093 157.421 169.636 156.129 169.636 156.129C169.636 156.129 169.456 157.481 167.802 158.127C166.148 158.773 163.108 155.819 163.108 155.819C163.108 155.819 163.866 158.171 162.548 157.998C161.221 157.817 157.19 153.804 157.19 153.804C157.19 153.804 157.681 155.957 156.208 154.57C154.735 153.183 152.763 148.498 152.763 148.498C152.763 148.498 152.565 150.711 151.635 149.6C150.713 148.489 150.704 142.839 150.704 142.839C150.704 142.839 150.635 145.518 149.593 142.744C148.603 140.091 149.567 137.128 149.645 136.887C149.559 136.956 148.224 138.145 148.439 135.793C148.56 134.458 149.051 133.364 149.473 132.649C149.817 132.055 150.11 131.728 150.11 131.728C150.11 131.728 149.714 128.558 150.799 124.122C151.884 119.686 155.373 116.405 162.487 117.791C169.611 119.169 169.964 127.188 169.964 127.188C169.964 127.188 170.179 127.3 170.532 127.49C172.031 128.3 176.036 130.53 176.82 131.555C177.785 132.83 176.829 132.71 176.829 132.71C176.829 132.71 179.163 135.828 179.223 137.094C179.283 138.351 178.215 138.136 178.215 138.136C178.215 138.136 180.36 141.53 179.86 143.304Z" fill="white"/>
<path d="M161.289 127.945C161.289 127.945 159.145 124.568 158.038 124.8C155.946 125.238 155.074 127.84 155.074 127.84C155.074 127.84 154.854 130.272 157.411 132.017C157.411 132.017 160.736 130.29 161.289 127.945Z" fill="#FC814A"/>
<path opacity="0.2" d="M155.078 127.842C155.078 127.842 155.068 127.954 155.077 128.153L155.076 128.162C155.115 128.874 155.413 130.648 157.409 132.014C157.409 132.014 160.739 130.29 161.288 127.945C161.288 127.945 159.145 124.569 158.034 124.797C155.945 125.239 155.078 127.842 155.078 127.842Z" fill="black"/>
<path opacity="0.2" d="M155.076 128.162C155.115 128.874 155.413 130.648 157.409 132.014C157.409 132.014 160.739 130.29 161.288 127.945C161.288 127.945 159.586 129.84 157.199 130.318C157.199 130.318 155.779 129.567 155.076 128.162Z" fill="black"/>
<path d="M165.715 125.265C165.661 125.859 165.993 126.374 166.456 126.415C166.92 126.457 167.338 126.009 167.392 125.416C167.445 124.822 167.114 124.307 166.65 124.266C166.187 124.225 165.768 124.672 165.715 125.265Z" fill="#263238"/>
<path d="M151.222 124.73C151.169 125.324 151.5 125.839 151.964 125.88C152.426 125.922 152.845 125.474 152.899 124.881C152.953 124.287 152.621 123.772 152.158 123.731C151.695 123.689 151.276 124.137 151.222 124.73Z" fill="#263238"/>
<path opacity="0.2" d="M162.729 136.999C162.729 136.999 161.635 140.582 158.181 140.754C154.718 140.918 153.013 137.257 153.013 137.257C153.013 137.257 150.386 138.825 149.473 132.649C149.817 132.055 150.11 131.728 150.11 131.728C150.636 136.069 152.677 137.171 153.443 136.069C153.443 136.069 155.338 139.135 158.181 138.877C161.023 138.618 162.556 136.319 162.556 136.319C162.556 136.319 162.901 136.749 163.581 136.405C164.262 136.069 164.408 134.449 164.408 134.449C164.408 134.449 164.684 137.344 162.729 136.999Z" fill="black"/>
<path opacity="0.2" d="M169.404 132.313C169.301 133.287 168.879 133.795 168.775 133.907C169.146 133.433 169.206 131.728 169.206 131.728C169.886 132.158 170.222 129.083 169.964 127.188C169.964 127.188 170.179 127.3 170.532 127.49C170.834 132.046 169.404 132.313 169.404 132.313Z" fill="black"/>
</svg>
